<mxfile host="65bd71144e">
    <diagram id="d2k9UJR3CmxIdJL4uFYe" name="Page-1">
        <mxGraphModel dx="2088" dy="629" grid="0" gridSize="10" guides="1" tooltips="1" connect="1" arrows="1" fold="1" page="1" pageScale="1" pageWidth="700" pageHeight="1000" math="0" shadow="0">
            <root>
                <mxCell id="0"/>
                <mxCell id="1" parent="0"/>
                <mxCell id="217" value="グローバルナビゲーション（共通・ログアウト中）" style="shape=table;startSize=26;container=1;collapsible=0;childLayout=tableLayout;fontStyle=1;align=center;shadow=0;strokeColor=#d6b656;fillColor=#fff2cc;rounded=1;strokeWidth=3;" parent="1" vertex="1">
                    <mxGeometry x="1071" y="43" width="571" height="52" as="geometry"/>
                </mxCell>
                <mxCell id="218" value="" style="shape=tableRow;horizontal=0;startSize=0;swimlaneHead=0;swimlaneBody=0;top=0;left=0;bottom=0;right=0;collapsible=0;dropTarget=0;fillColor=none;points=[[0,0.5],[1,0.5]];portConstraint=eastwest;shadow=0;strokeColor=default;rounded=1;strokeWidth=3;" parent="217" vertex="1">
                    <mxGeometry y="26" width="571" height="26" as="geometry"/>
                </mxCell>
                <mxCell id="219" value="「ホーム」をクリック" style="shape=partialRectangle;html=1;whiteSpace=wrap;connectable=0;fillColor=none;top=0;left=0;bottom=0;right=0;overflow=hidden;shadow=0;strokeColor=default;align=center;rounded=1;strokeWidth=3;" parent="218" vertex="1">
                    <mxGeometry width="191" height="26" as="geometry">
                        <mxRectangle width="191" height="26" as="alternateBounds"/>
                    </mxGeometry>
                </mxCell>
                <mxCell id="263" value="「ログイン」をクリック" style="shape=partialRectangle;html=1;whiteSpace=wrap;connectable=0;fillColor=none;top=0;left=0;bottom=0;right=0;overflow=hidden;shadow=0;strokeColor=default;align=center;rounded=1;strokeWidth=3;" parent="218" vertex="1">
                    <mxGeometry x="191" width="191" height="26" as="geometry">
                        <mxRectangle width="191" height="26" as="alternateBounds"/>
                    </mxGeometry>
                </mxCell>
                <mxCell id="220" value="「新規会員登録」をクリック" style="shape=partialRectangle;html=1;whiteSpace=wrap;connectable=0;fillColor=none;top=0;left=0;bottom=0;right=0;overflow=hidden;shadow=0;strokeColor=default;align=center;rounded=1;strokeWidth=3;" parent="218" vertex="1">
                    <mxGeometry x="382" width="189" height="26" as="geometry">
                        <mxRectangle width="189" height="26" as="alternateBounds"/>
                    </mxGeometry>
                </mxCell>
                <mxCell id="221" value="「アカウント」登録画面" style="swimlane;fontStyle=1;childLayout=stackLayout;horizontal=1;startSize=26;fillColor=#fff2cc;horizontalStack=0;resizeParent=1;resizeParentMax=0;resizeLast=0;collapsible=1;marginBottom=0;html=1;shadow=0;strokeColor=#d6b656;fontFamily=Helvetica;fontSize=12;rounded=1;strokeWidth=3;" parent="1" vertex="1">
                    <mxGeometry x="1515" y="154" width="161" height="52" as="geometry"/>
                </mxCell>
                <mxCell id="222" value="「登録する」をクリック" style="text;strokeColor=none;fillColor=none;align=center;verticalAlign=top;spacingLeft=4;spacingRight=4;overflow=hidden;rotatable=0;points=[[0,0.5],[1,0.5]];portConstraint=eastwest;whiteSpace=wrap;html=1;shadow=0;fontFamily=Helvetica;fontSize=12;fontColor=default;startSize=30;rounded=1;strokeWidth=3;" parent="221" vertex="1">
                    <mxGeometry y="26" width="161" height="26" as="geometry"/>
                </mxCell>
                <mxCell id="227" value="" style="endArrow=classic;html=1;fontFamily=Helvetica;fontSize=12;fontColor=default;startSize=30;edgeStyle=orthogonalEdgeStyle;elbow=vertical;curved=1;rounded=1;strokeWidth=3;" parent="1" edge="1">
                    <mxGeometry width="50" height="50" relative="1" as="geometry">
                        <mxPoint x="1684" y="194" as="sourcePoint"/>
                        <mxPoint x="1682" y="167" as="targetPoint"/>
                        <Array as="points">
                            <mxPoint x="1726" y="194"/>
                            <mxPoint x="1726" y="167"/>
                        </Array>
                    </mxGeometry>
                </mxCell>
                <mxCell id="228" value="失敗" style="text;strokeColor=none;fillColor=none;align=left;verticalAlign=top;spacingLeft=4;spacingRight=4;overflow=hidden;rotatable=0;points=[[0,0.5],[1,0.5]];portConstraint=eastwest;whiteSpace=wrap;html=1;shadow=0;fontFamily=Helvetica;fontSize=10;fontColor=default;startSize=30;fontStyle=1;rounded=1;strokeWidth=3;" parent="1" vertex="1">
                    <mxGeometry x="1704" y="144" width="37" height="21" as="geometry"/>
                </mxCell>
                <mxCell id="231" value="グローバルナビゲーション（顧客・ログイン中）" style="shape=table;startSize=26;container=1;collapsible=0;childLayout=tableLayout;fontStyle=1;align=center;shadow=0;strokeColor=#d6b656;fillColor=#fff2cc;rounded=1;strokeWidth=3;" parent="1" vertex="1">
                    <mxGeometry x="-216" y="43" width="905" height="52" as="geometry"/>
                </mxCell>
                <mxCell id="232" value="" style="shape=tableRow;horizontal=0;startSize=0;swimlaneHead=0;swimlaneBody=0;top=0;left=0;bottom=0;right=0;collapsible=0;dropTarget=0;fillColor=none;points=[[0,0.5],[1,0.5]];portConstraint=eastwest;shadow=0;strokeColor=default;rounded=1;strokeWidth=3;" parent="231" vertex="1">
                    <mxGeometry y="26" width="905" height="26" as="geometry"/>
                </mxCell>
                <mxCell id="519" value="「ホーム」をクリック" style="shape=partialRectangle;html=1;whiteSpace=wrap;connectable=0;fillColor=none;top=0;left=0;bottom=0;right=0;overflow=hidden;shadow=0;strokeColor=default;align=center;rounded=1;strokeWidth=3;" parent="232" vertex="1">
                    <mxGeometry width="182" height="26" as="geometry">
                        <mxRectangle width="182" height="26" as="alternateBounds"/>
                    </mxGeometry>
                </mxCell>
                <mxCell id="284" value="「商品」をクリック" style="shape=partialRectangle;html=1;whiteSpace=wrap;connectable=0;fillColor=none;top=0;left=0;bottom=0;right=0;overflow=hidden;shadow=0;strokeColor=default;align=center;rounded=1;strokeWidth=3;" parent="232" vertex="1">
                    <mxGeometry x="182" width="182" height="26" as="geometry">
                        <mxRectangle width="182" height="26" as="alternateBounds"/>
                    </mxGeometry>
                </mxCell>
                <mxCell id="283" value="「買い物かご」をクリック" style="shape=partialRectangle;html=1;whiteSpace=wrap;connectable=0;fillColor=none;top=0;left=0;bottom=0;right=0;overflow=hidden;shadow=0;strokeColor=default;align=center;rounded=1;strokeWidth=3;" parent="232" vertex="1">
                    <mxGeometry x="364" width="182" height="26" as="geometry">
                        <mxRectangle width="182" height="26" as="alternateBounds"/>
                    </mxGeometry>
                </mxCell>
                <mxCell id="233" value="「お問い合わせ」をクリック" style="shape=partialRectangle;html=1;whiteSpace=wrap;connectable=0;fillColor=none;top=0;left=0;bottom=0;right=0;overflow=hidden;shadow=0;strokeColor=default;align=center;rounded=1;strokeWidth=3;" parent="232" vertex="1">
                    <mxGeometry x="546" width="179" height="26" as="geometry">
                        <mxRectangle width="179" height="26" as="alternateBounds"/>
                    </mxGeometry>
                </mxCell>
                <mxCell id="234" value="「アカウント」をクリック" style="shape=partialRectangle;html=1;whiteSpace=wrap;connectable=0;fillColor=none;top=0;left=0;bottom=0;right=0;overflow=hidden;shadow=0;strokeColor=default;align=center;rounded=1;strokeWidth=3;" parent="232" vertex="1">
                    <mxGeometry x="725" width="180" height="26" as="geometry">
                        <mxRectangle width="180" height="26" as="alternateBounds"/>
                    </mxGeometry>
                </mxCell>
                <mxCell id="253" value="「商品一覧」画面" style="swimlane;fontStyle=1;childLayout=stackLayout;horizontal=1;startSize=30;horizontalStack=0;resizeParent=1;resizeParentMax=0;resizeLast=0;collapsible=1;marginBottom=0;whiteSpace=wrap;html=1;shadow=0;strokeColor=#d6b656;fontFamily=Helvetica;fontSize=12;fillColor=#fff2cc;align=center;rounded=1;strokeWidth=3;" parent="1" vertex="1">
                    <mxGeometry x="-212" y="367" width="193" height="60" as="geometry"/>
                </mxCell>
                <mxCell id="254" value="「詳細」をクリック" style="text;align=center;verticalAlign=middle;spacingLeft=4;spacingRight=4;overflow=hidden;points=[[0,0.5],[1,0.5]];portConstraint=eastwest;rotatable=0;whiteSpace=wrap;html=1;shadow=0;fontFamily=Helvetica;fontSize=12;strokeColor=#D6B656;rounded=1;strokeWidth=3;" parent="253" vertex="1">
                    <mxGeometry y="30" width="193" height="30" as="geometry"/>
                </mxCell>
                <mxCell id="259" value="成功" style="text;strokeColor=none;fillColor=none;align=left;verticalAlign=top;spacingLeft=4;spacingRight=4;overflow=hidden;rotatable=0;points=[[0,0.5],[1,0.5]];portConstraint=eastwest;whiteSpace=wrap;html=1;shadow=0;fontFamily=Helvetica;fontSize=10;fontColor=default;startSize=30;fontStyle=1;rounded=1;strokeWidth=3;" parent="1" vertex="1">
                    <mxGeometry x="1602" y="209" width="37" height="21" as="geometry"/>
                </mxCell>
                <mxCell id="261" value="成功" style="text;strokeColor=none;fillColor=none;align=left;verticalAlign=top;spacingLeft=4;spacingRight=4;overflow=hidden;rotatable=0;points=[[0,0.5],[1,0.5]];portConstraint=eastwest;whiteSpace=wrap;html=1;shadow=0;fontFamily=Helvetica;fontSize=10;fontColor=default;startSize=30;fontStyle=1;rounded=1;strokeWidth=3;" parent="1" vertex="1">
                    <mxGeometry x="1317" y="293.5" width="37" height="21" as="geometry"/>
                </mxCell>
                <mxCell id="265" value="失敗" style="text;strokeColor=none;fillColor=none;align=left;verticalAlign=top;spacingLeft=4;spacingRight=4;overflow=hidden;rotatable=0;points=[[0,0.5],[1,0.5]];portConstraint=eastwest;whiteSpace=wrap;html=1;shadow=0;fontFamily=Helvetica;fontSize=10;fontColor=default;startSize=30;fontStyle=1;rounded=1;strokeWidth=3;" parent="1" vertex="1">
                    <mxGeometry x="1432" y="148" width="37" height="21" as="geometry"/>
                </mxCell>
                <mxCell id="266" value="" style="endArrow=classic;html=1;fontFamily=Helvetica;fontSize=12;fontColor=default;startSize=30;edgeStyle=orthogonalEdgeStyle;elbow=vertical;curved=1;rounded=1;strokeWidth=3;" parent="1" edge="1">
                    <mxGeometry width="50" height="50" relative="1" as="geometry">
                        <mxPoint x="1412" y="198" as="sourcePoint"/>
                        <mxPoint x="1410" y="171" as="targetPoint"/>
                        <Array as="points">
                            <mxPoint x="1454" y="198"/>
                            <mxPoint x="1454" y="171"/>
                        </Array>
                    </mxGeometry>
                </mxCell>
                <mxCell id="267" value="「ログイン」画面" style="swimlane;fontStyle=1;childLayout=stackLayout;horizontal=1;startSize=26;fillColor=#fff2cc;horizontalStack=0;resizeParent=1;resizeParentMax=0;resizeLast=0;collapsible=1;marginBottom=0;html=1;shadow=0;strokeColor=#d6b656;fontFamily=Helvetica;fontSize=12;rounded=1;strokeWidth=3;" parent="1" vertex="1">
                    <mxGeometry x="1230" y="157" width="177" height="52" as="geometry"/>
                </mxCell>
                <mxCell id="268" value="「ログインする」をクリック" style="text;strokeColor=none;fillColor=none;align=center;verticalAlign=top;spacingLeft=4;spacingRight=4;overflow=hidden;rotatable=0;points=[[0,0.5],[1,0.5]];portConstraint=eastwest;whiteSpace=wrap;html=1;shadow=0;fontFamily=Helvetica;fontSize=12;fontColor=default;startSize=30;rounded=1;strokeWidth=3;" parent="267" vertex="1">
                    <mxGeometry y="26" width="177" height="26" as="geometry"/>
                </mxCell>
                <mxCell id="832" style="edgeStyle=none;shape=flexArrow;html=1;dashed=1;strokeWidth=3;endArrow=block;endFill=1;opacity=20;" parent="1" source="343" edge="1">
                    <mxGeometry relative="1" as="geometry">
                        <mxPoint x="608" y="325" as="targetPoint"/>
                    </mxGeometry>
                </mxCell>
                <mxCell id="343" value="「顧客情報編集」画面" style="swimlane;fontStyle=1;childLayout=stackLayout;horizontal=1;startSize=30;horizontalStack=0;resizeParent=1;resizeParentMax=0;resizeLast=0;collapsible=1;marginBottom=0;whiteSpace=wrap;html=1;shadow=0;strokeColor=#d6b656;fontFamily=Helvetica;fontSize=12;fillColor=#fff2cc;align=center;rounded=1;strokeWidth=3;" parent="1" vertex="1">
                    <mxGeometry x="506.5" y="350" width="169" height="90" as="geometry"/>
                </mxCell>
                <mxCell id="345" value="「編集」をクリック" style="text;strokeColor=#D6B656;fillColor=none;align=center;verticalAlign=middle;spacingLeft=4;spacingRight=4;overflow=hidden;points=[[0,0.5],[1,0.5]];portConstraint=eastwest;rotatable=0;whiteSpace=wrap;html=1;shadow=0;fontFamily=Helvetica;fontSize=12;fontColor=default;rounded=1;strokeWidth=3;" parent="343" vertex="1">
                    <mxGeometry y="30" width="169" height="30" as="geometry"/>
                </mxCell>
                <mxCell id="346" value="「削除」をクリック" style="text;strokeColor=#D6B656;fillColor=none;align=center;verticalAlign=middle;spacingLeft=4;spacingRight=4;overflow=hidden;points=[[0,0.5],[1,0.5]];portConstraint=eastwest;rotatable=0;whiteSpace=wrap;html=1;shadow=0;fontFamily=Helvetica;fontSize=12;fontColor=default;rounded=1;strokeWidth=3;" parent="343" vertex="1">
                    <mxGeometry y="60" width="169" height="30" as="geometry"/>
                </mxCell>
                <mxCell id="347" value="「注文履歴一覧」画面" style="swimlane;fontStyle=1;childLayout=stackLayout;horizontal=1;startSize=30;horizontalStack=0;resizeParent=1;resizeParentMax=0;resizeLast=0;collapsible=1;marginBottom=0;whiteSpace=wrap;html=1;shadow=0;strokeColor=#d6b656;fontFamily=Helvetica;fontSize=12;fillColor=#fff2cc;align=center;rounded=1;strokeWidth=3;" parent="1" vertex="1">
                    <mxGeometry x="71.5" y="500.77" width="180" height="60" as="geometry"/>
                </mxCell>
                <mxCell id="348" value="「注文履歴」をクリック" style="text;strokeColor=#D6B656;fillColor=none;align=center;verticalAlign=middle;spacingLeft=4;spacingRight=4;overflow=hidden;points=[[0,0.5],[1,0.5]];portConstraint=eastwest;rotatable=0;whiteSpace=wrap;html=1;shadow=0;fontFamily=Helvetica;fontSize=12;fontColor=default;rounded=1;strokeWidth=3;" parent="347" vertex="1">
                    <mxGeometry y="30" width="180" height="30" as="geometry"/>
                </mxCell>
                <mxCell id="350" value="「アカウント」の項目" style="swimlane;fontStyle=1;childLayout=stackLayout;horizontal=1;startSize=30;horizontalStack=0;resizeParent=1;resizeParentMax=0;resizeLast=0;collapsible=1;marginBottom=0;whiteSpace=wrap;html=1;shadow=0;strokeColor=#d6b656;fontFamily=Helvetica;fontSize=12;fillColor=#fff2cc;align=center;rounded=1;strokeWidth=3;" parent="1" vertex="1">
                    <mxGeometry x="515" y="150" width="169" height="120" as="geometry"/>
                </mxCell>
                <mxCell id="351" value="「顧客情報設定」をクリック" style="text;align=center;verticalAlign=middle;spacingLeft=4;spacingRight=4;overflow=hidden;points=[[0,0.5],[1,0.5]];portConstraint=eastwest;rotatable=0;whiteSpace=wrap;html=1;shadow=0;fontFamily=Helvetica;fontSize=12;strokeColor=#D6B656;rounded=1;strokeWidth=3;" parent="350" vertex="1">
                    <mxGeometry y="30" width="169" height="30" as="geometry"/>
                </mxCell>
                <mxCell id="352" value="「注文履歴」をクリック" style="text;strokeColor=#D6B656;fillColor=none;align=center;verticalAlign=middle;spacingLeft=4;spacingRight=4;overflow=hidden;points=[[0,0.5],[1,0.5]];portConstraint=eastwest;rotatable=0;whiteSpace=wrap;html=1;shadow=0;fontFamily=Helvetica;fontSize=12;fontColor=default;rounded=1;strokeWidth=3;" parent="350" vertex="1">
                    <mxGeometry y="60" width="169" height="30" as="geometry"/>
                </mxCell>
                <mxCell id="353" value="「ログアウト」をクリック" style="text;strokeColor=#D6B656;fillColor=none;align=center;verticalAlign=middle;spacingLeft=4;spacingRight=4;overflow=hidden;points=[[0,0.5],[1,0.5]];portConstraint=eastwest;rotatable=0;whiteSpace=wrap;html=1;shadow=0;fontFamily=Helvetica;fontSize=12;fontColor=default;rounded=1;strokeWidth=3;" parent="350" vertex="1">
                    <mxGeometry y="90" width="169" height="30" as="geometry"/>
                </mxCell>
                <mxCell id="354" value="「商品詳細」画面" style="swimlane;fontStyle=1;childLayout=stackLayout;horizontal=1;startSize=30;horizontalStack=0;resizeParent=1;resizeParentMax=0;resizeLast=0;collapsible=1;marginBottom=0;whiteSpace=wrap;html=1;shadow=0;strokeColor=#d6b656;fontFamily=Helvetica;fontSize=12;fillColor=#fff2cc;align=center;rounded=1;strokeWidth=3;" parent="1" vertex="1">
                    <mxGeometry x="-208" y="258" width="188" height="60" as="geometry"/>
                </mxCell>
                <mxCell id="355" value="「カート追加」をクリック" style="text;align=center;verticalAlign=middle;spacingLeft=4;spacingRight=4;overflow=hidden;points=[[0,0.5],[1,0.5]];portConstraint=eastwest;rotatable=0;whiteSpace=wrap;html=1;shadow=0;fontFamily=Helvetica;fontSize=12;strokeColor=#D6B656;rounded=1;strokeWidth=3;" parent="354" vertex="1">
                    <mxGeometry y="30" width="188" height="30" as="geometry"/>
                </mxCell>
                <mxCell id="356" value="「買い物かご」画面" style="swimlane;fontStyle=1;childLayout=stackLayout;horizontal=1;startSize=30;horizontalStack=0;resizeParent=1;resizeParentMax=0;resizeLast=0;collapsible=1;marginBottom=0;whiteSpace=wrap;html=1;shadow=0;strokeColor=#d6b656;fontFamily=Helvetica;fontSize=12;fillColor=#fff2cc;align=center;rounded=1;strokeWidth=3;" parent="1" vertex="1">
                    <mxGeometry x="70" y="148" width="173.5" height="60" as="geometry"/>
                </mxCell>
                <mxCell id="357" value="「お会計」をクリック" style="text;align=center;verticalAlign=middle;spacingLeft=4;spacingRight=4;overflow=hidden;points=[[0,0.5],[1,0.5]];portConstraint=eastwest;rotatable=0;whiteSpace=wrap;html=1;shadow=0;fontFamily=Helvetica;fontSize=12;strokeColor=#D6B656;rounded=1;strokeWidth=3;" parent="356" vertex="1">
                    <mxGeometry y="30" width="173.5" height="30" as="geometry"/>
                </mxCell>
                <mxCell id="358" value="「支払い」画面" style="swimlane;fontStyle=1;childLayout=stackLayout;horizontal=1;startSize=30;horizontalStack=0;resizeParent=1;resizeParentMax=0;resizeLast=0;collapsible=1;marginBottom=0;whiteSpace=wrap;html=1;shadow=0;strokeColor=#d6b656;fontFamily=Helvetica;fontSize=12;fillColor=#fff2cc;align=center;rounded=1;strokeWidth=3;" parent="1" vertex="1">
                    <mxGeometry x="68.5" y="253" width="175" height="91" as="geometry"/>
                </mxCell>
                <mxCell id="772" value="「支払う」をクリック" style="text;align=center;verticalAlign=middle;spacingLeft=4;spacingRight=4;overflow=hidden;points=[[0,0.5],[1,0.5]];portConstraint=eastwest;rotatable=0;whiteSpace=wrap;html=1;shadow=0;fontFamily=Helvetica;fontSize=12;strokeColor=#D6B656;rounded=1;strokeWidth=3;" parent="358" vertex="1">
                    <mxGeometry y="30" width="175" height="30" as="geometry"/>
                </mxCell>
                <mxCell id="359" value="「戻る」をクリック" style="text;align=center;verticalAlign=middle;spacingLeft=4;spacingRight=4;overflow=hidden;points=[[0,0.5],[1,0.5]];portConstraint=eastwest;rotatable=0;whiteSpace=wrap;html=1;shadow=0;fontFamily=Helvetica;fontSize=12;strokeColor=#D6B656;rounded=1;strokeWidth=3;" parent="358" vertex="1">
                    <mxGeometry y="60" width="175" height="31" as="geometry"/>
                </mxCell>
                <mxCell id="817" value="" style="edgeStyle=none;shape=flexArrow;html=1;dashed=1;strokeWidth=3;endArrow=block;endFill=1;opacity=20;" parent="1" source="360" target="359" edge="1">
                    <mxGeometry relative="1" as="geometry"/>
                </mxCell>
                <mxCell id="360" value="「支払い成功」画面" style="swimlane;fontStyle=1;childLayout=stackLayout;horizontal=1;startSize=30;horizontalStack=0;resizeParent=1;resizeParentMax=0;resizeLast=0;collapsible=1;marginBottom=0;whiteSpace=wrap;html=1;shadow=0;strokeColor=#d6b656;fontFamily=Helvetica;fontSize=12;fillColor=#fff2cc;align=center;rounded=1;strokeWidth=3;" parent="1" vertex="1">
                    <mxGeometry x="68.5" y="397.77" width="177.5" height="60" as="geometry"/>
                </mxCell>
                <mxCell id="361" value="「注文履歴へ進む」をクリック" style="text;align=center;verticalAlign=middle;spacingLeft=4;spacingRight=4;overflow=hidden;points=[[0,0.5],[1,0.5]];portConstraint=eastwest;rotatable=0;whiteSpace=wrap;html=1;shadow=0;fontFamily=Helvetica;fontSize=12;strokeColor=#D6B656;rounded=1;strokeWidth=3;" parent="360" vertex="1">
                    <mxGeometry y="30" width="177.5" height="30" as="geometry"/>
                </mxCell>
                <mxCell id="362" value="「注文完了」画面" style="swimlane;fontStyle=1;childLayout=stackLayout;horizontal=1;startSize=30;horizontalStack=0;resizeParent=1;resizeParentMax=0;resizeLast=0;collapsible=1;marginBottom=0;whiteSpace=wrap;html=1;shadow=0;strokeColor=#d6b656;fontFamily=Helvetica;fontSize=12;fillColor=#fff2cc;align=center;rounded=1;strokeWidth=3;" parent="1" vertex="1">
                    <mxGeometry x="-213" y="466" width="194" height="60" as="geometry"/>
                </mxCell>
                <mxCell id="363" value="「商品名」をクリック" style="text;strokeColor=#D6B656;fillColor=none;align=center;verticalAlign=middle;spacingLeft=4;spacingRight=4;overflow=hidden;points=[[0,0.5],[1,0.5]];portConstraint=eastwest;rotatable=0;whiteSpace=wrap;html=1;shadow=0;fontFamily=Helvetica;fontSize=12;fontColor=default;rounded=1;strokeWidth=3;" parent="362" vertex="1">
                    <mxGeometry y="30" width="194" height="30" as="geometry"/>
                </mxCell>
                <mxCell id="364" value="「問い合わせフォーム」画面" style="swimlane;fontStyle=1;childLayout=stackLayout;horizontal=1;startSize=30;horizontalStack=0;resizeParent=1;resizeParentMax=0;resizeLast=0;collapsible=1;marginBottom=0;whiteSpace=wrap;html=1;shadow=0;strokeColor=#d6b656;fontFamily=Helvetica;fontSize=12;fillColor=#fff2cc;align=center;rounded=1;strokeWidth=3;" parent="1" vertex="1">
                    <mxGeometry x="277" y="150" width="174" height="60" as="geometry"/>
                </mxCell>
                <mxCell id="365" value="「送信」をクリック" style="text;align=center;verticalAlign=middle;spacingLeft=4;spacingRight=4;overflow=hidden;points=[[0,0.5],[1,0.5]];portConstraint=eastwest;rotatable=0;whiteSpace=wrap;html=1;shadow=0;fontFamily=Helvetica;fontSize=12;strokeColor=#D6B656;rounded=1;strokeWidth=3;" parent="364" vertex="1">
                    <mxGeometry y="30" width="174" height="30" as="geometry"/>
                </mxCell>
                <mxCell id="366" value="" style="edgeStyle=orthogonalEdgeStyle;endArrow=classic;html=1;rounded=1;endSize=8;startSize=8;strokeWidth=3;entryX=-0.049;entryY=0.373;entryDx=0;entryDy=0;entryPerimeter=0;" parent="1" edge="1" target="513">
                    <mxGeometry width="50" height="50" relative="1" as="geometry">
                        <mxPoint x="1349" y="211" as="sourcePoint"/>
                        <mxPoint x="-573" y="223" as="targetPoint"/>
                        <Array as="points">
                            <mxPoint x="1349" y="767"/>
                            <mxPoint x="-958" y="767"/>
                            <mxPoint x="-958" y="225"/>
                        </Array>
                    </mxGeometry>
                </mxCell>
                <mxCell id="369" value="" style="edgeStyle=orthogonalEdgeStyle;endArrow=classic;html=1;rounded=1;endSize=8;startSize=8;strokeWidth=3;" parent="1" edge="1">
                    <mxGeometry width="50" height="50" relative="1" as="geometry">
                        <mxPoint x="1596" y="206" as="sourcePoint"/>
                        <mxPoint x="-219" y="371" as="targetPoint"/>
                        <Array as="points">
                            <mxPoint x="1596" y="726"/>
                            <mxPoint x="-264" y="726"/>
                            <mxPoint x="-264" y="371"/>
                        </Array>
                    </mxGeometry>
                </mxCell>
                <mxCell id="370" value="" style="edgeStyle=segmentEdgeStyle;endArrow=classic;html=1;curved=0;rounded=1;endSize=8;startSize=8;labelBackgroundColor=default;strokeColor=default;fontFamily=Helvetica;fontSize=11;fontColor=default;shape=connector;strokeWidth=3;" parent="1" edge="1">
                    <mxGeometry width="50" height="50" relative="1" as="geometry">
                        <mxPoint x="-116" y="361" as="sourcePoint"/>
                        <mxPoint x="-116" y="325" as="targetPoint"/>
                        <Array as="points">
                            <mxPoint x="-116" y="340"/>
                            <mxPoint x="-116" y="340"/>
                        </Array>
                    </mxGeometry>
                </mxCell>
                <mxCell id="371" value="" style="edgeStyle=elbowEdgeStyle;elbow=vertical;endArrow=classic;html=1;curved=0;rounded=1;endSize=8;startSize=8;labelBackgroundColor=default;strokeColor=default;fontFamily=Helvetica;fontSize=11;fontColor=default;shape=connector;strokeWidth=3;exitX=0.246;exitY=1.038;exitDx=0;exitDy=0;exitPerimeter=0;" parent="1" source="232" edge="1">
                    <mxGeometry width="50" height="50" relative="1" as="geometry">
                        <mxPoint x="44" y="95" as="sourcePoint"/>
                        <mxPoint x="-76" y="363" as="targetPoint"/>
                        <Array as="points">
                            <mxPoint x="-52" y="333"/>
                            <mxPoint x="-69" y="339"/>
                            <mxPoint x="8" y="330"/>
                            <mxPoint x="24" y="384"/>
                        </Array>
                    </mxGeometry>
                </mxCell>
                <mxCell id="372" value="" style="edgeStyle=elbowEdgeStyle;elbow=vertical;endArrow=classic;html=1;curved=0;rounded=1;endSize=8;startSize=8;labelBackgroundColor=default;strokeColor=default;fontFamily=Helvetica;fontSize=11;fontColor=default;shape=connector;entryX=-0.035;entryY=-0.267;entryDx=0;entryDy=0;entryPerimeter=0;strokeWidth=3;" parent="1" target="357" edge="1">
                    <mxGeometry width="50" height="50" relative="1" as="geometry">
                        <mxPoint x="-99" y="253" as="sourcePoint"/>
                        <mxPoint x="106" y="195" as="targetPoint"/>
                        <Array as="points">
                            <mxPoint x="-16" y="170"/>
                            <mxPoint x="-95" y="182"/>
                        </Array>
                    </mxGeometry>
                </mxCell>
                <mxCell id="378" value="" style="endArrow=classic;html=1;fontFamily=Helvetica;fontSize=12;fontColor=default;startSize=30;edgeStyle=elbowEdgeStyle;elbow=vertical;entryX=0.458;entryY=0;entryDx=0;entryDy=0;entryPerimeter=0;rounded=1;strokeWidth=3;" parent="1" target="491" edge="1">
                    <mxGeometry width="50" height="50" relative="1" as="geometry">
                        <mxPoint x="1174.5" y="95" as="sourcePoint"/>
                        <mxPoint x="1098" y="152" as="targetPoint"/>
                        <Array as="points">
                            <mxPoint x="1139" y="119"/>
                        </Array>
                    </mxGeometry>
                </mxCell>
                <mxCell id="388" value="" style="endArrow=classic;html=1;fontFamily=Helvetica;fontSize=12;fontColor=default;startSize=30;fontStyle=1;rounded=1;strokeWidth=3;" parent="1" edge="1">
                    <mxGeometry width="50" height="50" relative="1" as="geometry">
                        <mxPoint x="156.25" y="237" as="sourcePoint"/>
                        <mxPoint x="156.25" y="250" as="targetPoint"/>
                        <Array as="points">
                            <mxPoint x="156.25" y="208"/>
                        </Array>
                    </mxGeometry>
                </mxCell>
                <mxCell id="391" value="" style="endArrow=classic;html=1;fontFamily=Helvetica;fontSize=12;fontColor=default;startSize=30;rounded=1;strokeWidth=3;" parent="1" edge="1">
                    <mxGeometry width="50" height="50" relative="1" as="geometry">
                        <mxPoint x="154" y="486.77" as="sourcePoint"/>
                        <mxPoint x="154" y="499.77" as="targetPoint"/>
                        <Array as="points">
                            <mxPoint x="154" y="457.77"/>
                        </Array>
                    </mxGeometry>
                </mxCell>
                <mxCell id="402" value="" style="edgeStyle=segmentEdgeStyle;endArrow=classic;html=1;curved=0;rounded=1;endSize=8;startSize=8;labelBackgroundColor=default;strokeColor=default;fontFamily=Helvetica;fontSize=11;fontColor=default;shape=connector;strokeWidth=3;" parent="1" edge="1">
                    <mxGeometry width="50" height="50" relative="1" as="geometry">
                        <mxPoint x="-213" y="511" as="sourcePoint"/>
                        <mxPoint x="-213" y="276" as="targetPoint"/>
                        <Array as="points">
                            <mxPoint x="-288" y="511"/>
                            <mxPoint x="-288" y="276"/>
                        </Array>
                    </mxGeometry>
                </mxCell>
                <mxCell id="409" value="" style="edgeStyle=segmentEdgeStyle;endArrow=classic;html=1;curved=0;rounded=1;endSize=8;startSize=8;labelBackgroundColor=default;strokeColor=default;fontFamily=Helvetica;fontSize=11;fontColor=default;shape=connector;strokeWidth=3;" parent="1" edge="1">
                    <mxGeometry width="50" height="50" relative="1" as="geometry">
                        <mxPoint x="69" y="546" as="sourcePoint"/>
                        <mxPoint x="-15" y="474" as="targetPoint"/>
                        <Array as="points">
                            <mxPoint x="20" y="546"/>
                            <mxPoint x="20" y="474"/>
                        </Array>
                    </mxGeometry>
                </mxCell>
                <mxCell id="410" value="" style="edgeStyle=segmentEdgeStyle;endArrow=classic;html=1;curved=0;rounded=1;endSize=8;startSize=8;labelBackgroundColor=default;strokeColor=default;fontFamily=Helvetica;fontSize=11;fontColor=default;shape=connector;exitX=-0.043;exitY=0.667;exitDx=0;exitDy=0;exitPerimeter=0;entryX=1.053;entryY=0.641;entryDx=0;entryDy=0;entryPerimeter=0;strokeWidth=3;" parent="1" target="348" edge="1">
                    <mxGeometry width="50" height="50" relative="1" as="geometry">
                        <mxPoint x="515" y="231.01" as="sourcePoint"/>
                        <mxPoint x="291" y="550" as="targetPoint"/>
                        <Array as="points">
                            <mxPoint x="380" y="231"/>
                            <mxPoint x="380" y="550"/>
                        </Array>
                    </mxGeometry>
                </mxCell>
                <mxCell id="414" value="" style="edgeStyle=orthogonalEdgeStyle;endArrow=classic;html=1;rounded=1;endSize=8;startSize=8;labelBackgroundColor=default;strokeColor=default;fontFamily=Helvetica;fontSize=11;fontColor=default;shape=connector;strokeWidth=3;" parent="1" edge="1">
                    <mxGeometry width="50" height="50" relative="1" as="geometry">
                        <mxPoint x="500" y="396" as="sourcePoint"/>
                        <mxPoint x="1011" y="165" as="targetPoint"/>
                        <Array as="points">
                            <mxPoint x="420" y="396"/>
                            <mxPoint x="420" y="570"/>
                            <mxPoint x="838" y="570"/>
                            <mxPoint x="838" y="165"/>
                        </Array>
                    </mxGeometry>
                </mxCell>
                <mxCell id="491" value="「ホーム」画面" style="swimlane;fontStyle=1;childLayout=stackLayout;horizontal=1;startSize=26;fillColor=#fff2cc;horizontalStack=0;resizeParent=1;resizeParentMax=0;resizeLast=0;collapsible=1;marginBottom=0;html=1;shadow=0;strokeColor=#d6b656;fontFamily=Helvetica;fontSize=12;rounded=1;strokeWidth=3;" parent="1" vertex="1">
                    <mxGeometry x="1011" y="159.5" width="177" height="52" as="geometry"/>
                </mxCell>
                <mxCell id="492" value="「商品を探す」をクリック" style="text;strokeColor=none;fillColor=none;align=center;verticalAlign=top;spacingLeft=4;spacingRight=4;overflow=hidden;rotatable=0;points=[[0,0.5],[1,0.5]];portConstraint=eastwest;whiteSpace=wrap;html=1;shadow=0;fontFamily=Helvetica;fontSize=12;fontColor=default;startSize=30;rounded=1;strokeWidth=3;" parent="491" vertex="1">
                    <mxGeometry y="26" width="177" height="26" as="geometry"/>
                </mxCell>
                <mxCell id="505" value="「商品一覧」画面" style="swimlane;fontStyle=1;childLayout=stackLayout;horizontal=1;startSize=30;horizontalStack=0;resizeParent=1;resizeParentMax=0;resizeLast=0;collapsible=1;marginBottom=0;whiteSpace=wrap;html=1;shadow=0;strokeColor=#d6b656;fontFamily=Helvetica;fontSize=12;fillColor=#fff2cc;align=center;rounded=1;strokeWidth=3;" parent="1" vertex="1">
                    <mxGeometry x="994" y="294.27" width="183" height="120" as="geometry"/>
                </mxCell>
                <mxCell id="731" value="「詳細」をクリック" style="text;align=center;verticalAlign=middle;spacingLeft=4;spacingRight=4;overflow=hidden;points=[[0,0.5],[1,0.5]];portConstraint=eastwest;rotatable=0;whiteSpace=wrap;html=1;shadow=0;fontFamily=Helvetica;fontSize=12;strokeColor=#D6B656;rounded=1;strokeWidth=3;" parent="505" vertex="1">
                    <mxGeometry y="30" width="183" height="30" as="geometry"/>
                </mxCell>
                <mxCell id="732" value="「レビューを見る」をクリック" style="text;align=center;verticalAlign=middle;spacingLeft=4;spacingRight=4;overflow=hidden;points=[[0,0.5],[1,0.5]];portConstraint=eastwest;rotatable=0;whiteSpace=wrap;html=1;shadow=0;fontFamily=Helvetica;fontSize=12;strokeColor=#D6B656;rounded=1;strokeWidth=3;" parent="505" vertex="1">
                    <mxGeometry y="60" width="183" height="30" as="geometry"/>
                </mxCell>
                <mxCell id="506" value="「レビューを書く」をクリック" style="text;align=center;verticalAlign=middle;spacingLeft=4;spacingRight=4;overflow=hidden;points=[[0,0.5],[1,0.5]];portConstraint=eastwest;rotatable=0;whiteSpace=wrap;html=1;shadow=0;fontFamily=Helvetica;fontSize=12;strokeColor=#D6B656;rounded=1;strokeWidth=3;" parent="505" vertex="1">
                    <mxGeometry y="90" width="183" height="30" as="geometry"/>
                </mxCell>
                <mxCell id="512" value="" style="endArrow=classic;html=1;fontFamily=Helvetica;fontSize=12;fontColor=default;startSize=30;edgeStyle=elbowEdgeStyle;elbow=vertical;fontStyle=0;rounded=1;strokeWidth=3;" parent="1" edge="1">
                    <mxGeometry width="50" height="50" relative="1" as="geometry">
                        <mxPoint x="-112" y="97" as="sourcePoint"/>
                        <mxPoint x="-447" y="200" as="targetPoint"/>
                        <Array as="points">
                            <mxPoint x="-122" y="130"/>
                            <mxPoint x="-108" y="135"/>
                            <mxPoint x="-199" y="135"/>
                            <mxPoint x="-356" y="134.87"/>
                        </Array>
                    </mxGeometry>
                </mxCell>
                <mxCell id="513" value="「ホーム」画面" style="swimlane;fontStyle=1;childLayout=stackLayout;horizontal=1;startSize=26;fillColor=#fff2cc;horizontalStack=0;resizeParent=1;resizeParentMax=0;resizeLast=0;collapsible=1;marginBottom=0;html=1;shadow=0;strokeColor=#d6b656;fontFamily=Helvetica;fontSize=12;rounded=1;strokeWidth=3;" parent="1" vertex="1">
                    <mxGeometry x="-541" y="203" width="183" height="59" as="geometry"/>
                </mxCell>
                <mxCell id="514" value="「商品を探す」をクリック" style="text;strokeColor=none;fillColor=none;align=center;verticalAlign=middle;spacingLeft=4;spacingRight=4;overflow=hidden;rotatable=0;points=[[0,0.5],[1,0.5]];portConstraint=eastwest;whiteSpace=wrap;html=1;shadow=0;fontFamily=Helvetica;fontSize=12;fontColor=default;startSize=30;rounded=1;strokeWidth=3;" parent="513" vertex="1">
                    <mxGeometry y="26" width="183" height="33" as="geometry"/>
                </mxCell>
                <mxCell id="515" value="「商品詳細」画面" style="swimlane;fontStyle=1;childLayout=stackLayout;horizontal=1;startSize=30;horizontalStack=0;resizeParent=1;resizeParentMax=0;resizeLast=0;collapsible=1;marginBottom=0;whiteSpace=wrap;html=1;shadow=0;strokeColor=#d6b656;fontFamily=Helvetica;fontSize=12;fillColor=#fff2cc;align=center;rounded=1;strokeWidth=3;" parent="1" vertex="1">
                    <mxGeometry x="-552" y="482" width="206" height="120" as="geometry"/>
                </mxCell>
                <mxCell id="740" value="「カート追加」をクリック" style="text;align=center;verticalAlign=middle;spacingLeft=4;spacingRight=4;overflow=hidden;points=[[0,0.5],[1,0.5]];portConstraint=eastwest;rotatable=0;whiteSpace=wrap;html=1;shadow=0;fontFamily=Helvetica;fontSize=12;strokeColor=#D6B656;rounded=1;strokeWidth=3;" parent="515" vertex="1">
                    <mxGeometry y="30" width="206" height="30" as="geometry"/>
                </mxCell>
                <mxCell id="741" value="「レビューを保存する」をクリック" style="text;align=center;verticalAlign=middle;spacingLeft=4;spacingRight=4;overflow=hidden;points=[[0,0.5],[1,0.5]];portConstraint=eastwest;rotatable=0;whiteSpace=wrap;html=1;shadow=0;fontFamily=Helvetica;fontSize=12;strokeColor=#D6B656;rounded=1;strokeWidth=3;" parent="515" vertex="1">
                    <mxGeometry y="60" width="206" height="30" as="geometry"/>
                </mxCell>
                <mxCell id="516" value="「他のレビューを見る」をクリック" style="text;align=center;verticalAlign=middle;spacingLeft=4;spacingRight=4;overflow=hidden;points=[[0,0.5],[1,0.5]];portConstraint=eastwest;rotatable=0;whiteSpace=wrap;html=1;shadow=0;fontFamily=Helvetica;fontSize=12;strokeColor=#D6B656;rounded=1;strokeWidth=3;" parent="515" vertex="1">
                    <mxGeometry y="90" width="206" height="30" as="geometry"/>
                </mxCell>
                <mxCell id="517" value="「商品一覧」画面" style="swimlane;fontStyle=1;childLayout=stackLayout;horizontal=1;startSize=30;horizontalStack=0;resizeParent=1;resizeParentMax=0;resizeLast=0;collapsible=1;marginBottom=0;whiteSpace=wrap;html=1;shadow=0;strokeColor=#d6b656;fontFamily=Helvetica;fontSize=12;fillColor=#fff2cc;align=center;rounded=1;strokeWidth=3;" parent="1" vertex="1">
                    <mxGeometry x="-541" y="304.13" width="180" height="120" as="geometry"/>
                </mxCell>
                <mxCell id="685" value="「詳細」をクリック" style="text;align=center;verticalAlign=middle;spacingLeft=4;spacingRight=4;overflow=hidden;points=[[0,0.5],[1,0.5]];portConstraint=eastwest;rotatable=0;whiteSpace=wrap;html=1;shadow=0;fontFamily=Helvetica;fontSize=12;strokeColor=#D6B656;rounded=1;strokeWidth=3;" parent="517" vertex="1">
                    <mxGeometry y="30" width="180" height="30" as="geometry"/>
                </mxCell>
                <mxCell id="686" value="「レビューを見る」をクリック" style="text;align=center;verticalAlign=middle;spacingLeft=4;spacingRight=4;overflow=hidden;points=[[0,0.5],[1,0.5]];portConstraint=eastwest;rotatable=0;whiteSpace=wrap;html=1;shadow=0;fontFamily=Helvetica;fontSize=12;strokeColor=#D6B656;rounded=1;strokeWidth=3;" parent="517" vertex="1">
                    <mxGeometry y="60" width="180" height="30" as="geometry"/>
                </mxCell>
                <mxCell id="518" value="「レビューを書く」をクリック" style="text;align=center;verticalAlign=middle;spacingLeft=4;spacingRight=4;overflow=hidden;points=[[0,0.5],[1,0.5]];portConstraint=eastwest;rotatable=0;whiteSpace=wrap;html=1;shadow=0;fontFamily=Helvetica;fontSize=12;strokeColor=#D6B656;rounded=1;strokeWidth=3;" parent="517" vertex="1">
                    <mxGeometry y="90" width="180" height="30" as="geometry"/>
                </mxCell>
                <mxCell id="396" value="" style="endArrow=classic;html=1;fontFamily=Helvetica;fontSize=12;fontColor=default;startSize=30;edgeStyle=elbowEdgeStyle;elbow=vertical;entryX=0.425;entryY=0;entryDx=0;entryDy=0;entryPerimeter=0;rounded=1;strokeWidth=3;" parent="1" target="364" edge="1">
                    <mxGeometry width="50" height="50" relative="1" as="geometry">
                        <mxPoint x="440.5" y="97" as="sourcePoint"/>
                        <mxPoint x="393" y="147" as="targetPoint"/>
                        <Array as="points">
                            <mxPoint x="344" y="120"/>
                            <mxPoint x="494" y="117"/>
                            <mxPoint x="415" y="119"/>
                            <mxPoint x="325" y="132"/>
                            <mxPoint x="346" y="122"/>
                            <mxPoint x="296" y="129"/>
                            <mxPoint x="272" y="129"/>
                        </Array>
                    </mxGeometry>
                </mxCell>
                <mxCell id="521" value="" style="endArrow=classic;html=1;fontFamily=Helvetica;fontSize=12;fontColor=default;startSize=30;rounded=1;strokeWidth=3;" parent="1" edge="1">
                    <mxGeometry width="50" height="50" relative="1" as="geometry">
                        <mxPoint x="599" y="96" as="sourcePoint"/>
                        <mxPoint x="599" y="147" as="targetPoint"/>
                        <Array as="points">
                            <mxPoint x="599" y="102"/>
                        </Array>
                    </mxGeometry>
                </mxCell>
                <mxCell id="522" value="" style="endArrow=classic;html=1;fontFamily=Helvetica;fontSize=12;fontColor=default;startSize=30;edgeStyle=elbowEdgeStyle;elbow=vertical;entryX=0.425;entryY=0;entryDx=0;entryDy=0;entryPerimeter=0;rounded=1;strokeWidth=3;" parent="1" edge="1">
                    <mxGeometry width="50" height="50" relative="1" as="geometry">
                        <mxPoint x="247.5" y="94" as="sourcePoint"/>
                        <mxPoint x="157.94999999999982" y="147" as="targetPoint"/>
                        <Array as="points">
                            <mxPoint x="151" y="117"/>
                            <mxPoint x="301" y="114"/>
                            <mxPoint x="222" y="116"/>
                            <mxPoint x="132" y="129"/>
                            <mxPoint x="153" y="119"/>
                            <mxPoint x="103" y="126"/>
                            <mxPoint x="79" y="126"/>
                        </Array>
                    </mxGeometry>
                </mxCell>
                <mxCell id="527" value="" style="edgeStyle=segmentEdgeStyle;endArrow=classic;html=1;curved=0;rounded=1;endSize=8;startSize=8;labelBackgroundColor=default;strokeColor=default;fontFamily=Helvetica;fontSize=11;fontColor=default;shape=connector;strokeWidth=3;" parent="1" edge="1">
                    <mxGeometry width="50" height="50" relative="1" as="geometry">
                        <mxPoint x="-454" y="266" as="sourcePoint"/>
                        <mxPoint x="-454" y="302" as="targetPoint"/>
                        <Array as="points">
                            <mxPoint x="-454" y="281"/>
                            <mxPoint x="-454" y="281"/>
                        </Array>
                    </mxGeometry>
                </mxCell>
                <mxCell id="533" value="" style="edgeStyle=segmentEdgeStyle;endArrow=classic;html=1;curved=0;rounded=1;endSize=8;startSize=8;labelBackgroundColor=default;strokeColor=default;fontFamily=Helvetica;fontSize=11;fontColor=default;shape=connector;fontStyle=0;strokeWidth=3;" parent="1" target="515" edge="1">
                    <mxGeometry width="50" height="50" relative="1" as="geometry">
                        <mxPoint x="-356" y="357" as="sourcePoint"/>
                        <mxPoint x="-552" y="500" as="targetPoint"/>
                        <Array as="points">
                            <mxPoint x="-321" y="357"/>
                            <mxPoint x="-321" y="456"/>
                            <mxPoint x="-407" y="456"/>
                        </Array>
                    </mxGeometry>
                </mxCell>
                <mxCell id="534" value="" style="edgeStyle=segmentEdgeStyle;endArrow=classic;html=1;curved=0;rounded=1;endSize=8;startSize=8;exitX=0.557;exitY=0.933;exitDx=0;exitDy=0;exitPerimeter=0;fontStyle=0;strokeWidth=3;" parent="1" source="365" edge="1">
                    <mxGeometry width="50" height="50" relative="1" as="geometry">
                        <mxPoint x="372" y="220" as="sourcePoint"/>
                        <mxPoint x="-353" y="217" as="targetPoint"/>
                        <Array as="points">
                            <mxPoint x="374" y="229"/>
                            <mxPoint x="-252" y="229"/>
                            <mxPoint x="-252" y="217"/>
                        </Array>
                    </mxGeometry>
                </mxCell>
                <mxCell id="536" value="グローバルナビゲーション（管理者・ログイン中）" style="shape=table;startSize=26;container=1;collapsible=0;childLayout=tableLayout;fontStyle=1;align=center;shadow=0;strokeColor=#d6b656;fillColor=#fff2cc;rounded=1;strokeWidth=3;" parent="1" vertex="1">
                    <mxGeometry x="1911" y="43" width="905" height="52" as="geometry"/>
                </mxCell>
                <mxCell id="537" value="" style="shape=tableRow;horizontal=0;startSize=0;swimlaneHead=0;swimlaneBody=0;top=0;left=0;bottom=0;right=0;collapsible=0;dropTarget=0;fillColor=none;points=[[0,0.5],[1,0.5]];portConstraint=eastwest;shadow=0;strokeColor=default;rounded=1;strokeWidth=3;" parent="536" vertex="1">
                    <mxGeometry y="26" width="905" height="26" as="geometry"/>
                </mxCell>
                <mxCell id="538" value="「ホーム」をクリック" style="shape=partialRectangle;html=1;whiteSpace=wrap;connectable=0;fillColor=none;top=0;left=0;bottom=0;right=0;overflow=hidden;shadow=0;strokeColor=default;align=center;rounded=1;strokeWidth=3;" parent="537" vertex="1">
                    <mxGeometry width="182" height="26" as="geometry">
                        <mxRectangle width="182" height="26" as="alternateBounds"/>
                    </mxGeometry>
                </mxCell>
                <mxCell id="539" value="「注文履歴」をクリック" style="shape=partialRectangle;html=1;whiteSpace=wrap;connectable=0;fillColor=none;top=0;left=0;bottom=0;right=0;overflow=hidden;shadow=0;strokeColor=default;align=center;rounded=1;strokeWidth=3;" parent="537" vertex="1">
                    <mxGeometry x="182" width="182" height="26" as="geometry">
                        <mxRectangle width="182" height="26" as="alternateBounds"/>
                    </mxGeometry>
                </mxCell>
                <mxCell id="540" value="「顧客情報」をクリック" style="shape=partialRectangle;html=1;whiteSpace=wrap;connectable=0;fillColor=none;top=0;left=0;bottom=0;right=0;overflow=hidden;shadow=0;strokeColor=default;align=center;rounded=1;strokeWidth=3;" parent="537" vertex="1">
                    <mxGeometry x="364" width="182" height="26" as="geometry">
                        <mxRectangle width="182" height="26" as="alternateBounds"/>
                    </mxGeometry>
                </mxCell>
                <mxCell id="541" value="「商品」をクリック" style="shape=partialRectangle;html=1;whiteSpace=wrap;connectable=0;fillColor=none;top=0;left=0;bottom=0;right=0;overflow=hidden;shadow=0;strokeColor=default;align=center;rounded=1;strokeWidth=3;" parent="537" vertex="1">
                    <mxGeometry x="546" width="179" height="26" as="geometry">
                        <mxRectangle width="179" height="26" as="alternateBounds"/>
                    </mxGeometry>
                </mxCell>
                <mxCell id="542" value="「アカウント」をクリック" style="shape=partialRectangle;html=1;whiteSpace=wrap;connectable=0;fillColor=none;top=0;left=0;bottom=0;right=0;overflow=hidden;shadow=0;strokeColor=default;align=center;rounded=1;strokeWidth=3;" parent="537" vertex="1">
                    <mxGeometry x="725" width="180" height="26" as="geometry">
                        <mxRectangle width="180" height="26" as="alternateBounds"/>
                    </mxGeometry>
                </mxCell>
                <mxCell id="547" value="「アカウント」の項目" style="swimlane;fontStyle=1;childLayout=stackLayout;horizontal=1;startSize=30;horizontalStack=0;resizeParent=1;resizeParentMax=0;resizeLast=0;collapsible=1;marginBottom=0;whiteSpace=wrap;html=1;shadow=0;strokeColor=#d6b656;fontFamily=Helvetica;fontSize=12;fillColor=#fff2cc;align=center;rounded=1;strokeWidth=3;" parent="1" vertex="1">
                    <mxGeometry x="3093" y="198" width="169" height="60" as="geometry"/>
                </mxCell>
                <mxCell id="550" value="「ログアウト」をクリック" style="text;strokeColor=#D6B656;fillColor=none;align=center;verticalAlign=middle;spacingLeft=4;spacingRight=4;overflow=hidden;points=[[0,0.5],[1,0.5]];portConstraint=eastwest;rotatable=0;whiteSpace=wrap;html=1;shadow=0;fontFamily=Helvetica;fontSize=12;fontColor=default;rounded=1;strokeWidth=3;" parent="547" vertex="1">
                    <mxGeometry y="30" width="169" height="30" as="geometry"/>
                </mxCell>
                <mxCell id="553" value="" style="endArrow=classic;html=1;fontFamily=Helvetica;fontSize=12;fontColor=default;startSize=30;edgeStyle=orthogonalEdgeStyle;elbow=vertical;curved=1;rounded=1;strokeWidth=3;" parent="1" edge="1">
                    <mxGeometry width="50" height="50" relative="1" as="geometry">
                        <mxPoint x="3269" y="241" as="sourcePoint"/>
                        <mxPoint x="3267" y="214" as="targetPoint"/>
                        <Array as="points">
                            <mxPoint x="3311" y="241"/>
                            <mxPoint x="3311" y="214"/>
                        </Array>
                    </mxGeometry>
                </mxCell>
                <mxCell id="554" value="失敗" style="text;strokeColor=none;fillColor=none;align=left;verticalAlign=top;spacingLeft=4;spacingRight=4;overflow=hidden;rotatable=0;points=[[0,0.5],[1,0.5]];portConstraint=eastwest;whiteSpace=wrap;html=1;shadow=0;fontFamily=Helvetica;fontSize=10;fontColor=default;startSize=30;fontStyle=1;rounded=1;strokeWidth=3;" parent="1" vertex="1">
                    <mxGeometry x="3289" y="191" width="37" height="21" as="geometry"/>
                </mxCell>
                <mxCell id="574" value="" style="edgeStyle=segmentEdgeStyle;endArrow=classic;html=1;curved=0;rounded=1;endSize=8;startSize=8;labelBackgroundColor=default;strokeColor=default;fontFamily=Helvetica;fontSize=11;fontColor=default;shape=connector;strokeWidth=3;" parent="1" edge="1">
                    <mxGeometry width="50" height="50" relative="1" as="geometry">
                        <mxPoint x="1801.5" y="266.5" as="sourcePoint"/>
                        <mxPoint x="1801.5" y="302.5" as="targetPoint"/>
                        <Array as="points">
                            <mxPoint x="1801.5" y="281.5"/>
                            <mxPoint x="1801.5" y="281.5"/>
                        </Array>
                    </mxGeometry>
                </mxCell>
                <mxCell id="579" value="「ホーム」画面" style="swimlane;fontStyle=1;childLayout=stackLayout;horizontal=1;startSize=26;fillColor=#fff2cc;horizontalStack=0;resizeParent=1;resizeParentMax=0;resizeLast=0;collapsible=1;marginBottom=0;html=1;shadow=0;strokeColor=#d6b656;fontFamily=Helvetica;fontSize=12;rounded=1;strokeWidth=3;" parent="1" vertex="1">
                    <mxGeometry x="1713" y="205.5" width="183" height="59" as="geometry"/>
                </mxCell>
                <mxCell id="580" value="「商品を探す」をクリック" style="text;strokeColor=none;fillColor=none;align=center;verticalAlign=middle;spacingLeft=4;spacingRight=4;overflow=hidden;rotatable=0;points=[[0,0.5],[1,0.5]];portConstraint=eastwest;whiteSpace=wrap;html=1;shadow=0;fontFamily=Helvetica;fontSize=12;fontColor=default;startSize=30;rounded=1;strokeWidth=3;" parent="579" vertex="1">
                    <mxGeometry y="26" width="183" height="33" as="geometry"/>
                </mxCell>
                <mxCell id="584" value="" style="endArrow=classic;html=1;fontFamily=Helvetica;fontSize=12;fontColor=default;startSize=30;rounded=1;strokeWidth=3;" parent="1" edge="1">
                    <mxGeometry width="50" height="50" relative="1" as="geometry">
                        <mxPoint x="1084" y="221" as="sourcePoint"/>
                        <mxPoint x="1083.5" y="292" as="targetPoint"/>
                        <Array as="points">
                            <mxPoint x="1084" y="243"/>
                        </Array>
                    </mxGeometry>
                </mxCell>
                <mxCell id="587" value="" style="endArrow=classic;html=1;fontFamily=Helvetica;fontSize=12;fontColor=default;startSize=30;rounded=1;strokeWidth=3;" parent="1" edge="1">
                    <mxGeometry width="50" height="50" relative="1" as="geometry">
                        <mxPoint x="1347.26" y="95" as="sourcePoint"/>
                        <mxPoint x="1347.0007407407409" y="155" as="targetPoint"/>
                        <Array as="points">
                            <mxPoint x="1347.26" y="127"/>
                        </Array>
                    </mxGeometry>
                </mxCell>
                <mxCell id="588" value="「商品一覧」画面" style="swimlane;fontStyle=1;childLayout=stackLayout;horizontal=1;startSize=30;horizontalStack=0;resizeParent=1;resizeParentMax=0;resizeLast=0;collapsible=1;marginBottom=0;whiteSpace=wrap;html=1;shadow=0;strokeColor=#d6b656;fontFamily=Helvetica;fontSize=12;fillColor=#fff2cc;align=center;rounded=1;strokeWidth=3;" parent="1" vertex="1">
                    <mxGeometry x="2863" y="198.5" width="166" height="150" as="geometry"/>
                </mxCell>
                <mxCell id="593" value="「詳細」をクリック" style="text;align=center;verticalAlign=middle;spacingLeft=4;spacingRight=4;overflow=hidden;points=[[0,0.5],[1,0.5]];portConstraint=eastwest;rotatable=0;whiteSpace=wrap;html=1;shadow=0;fontFamily=Helvetica;fontSize=12;strokeColor=#D6B656;rounded=1;strokeWidth=3;" parent="588" vertex="1">
                    <mxGeometry y="30" width="166" height="30" as="geometry"/>
                </mxCell>
                <mxCell id="594" value="「編集」をクリック" style="text;align=center;verticalAlign=middle;spacingLeft=4;spacingRight=4;overflow=hidden;points=[[0,0.5],[1,0.5]];portConstraint=eastwest;rotatable=0;whiteSpace=wrap;html=1;shadow=0;fontFamily=Helvetica;fontSize=12;strokeColor=#D6B656;rounded=1;strokeWidth=3;" parent="588" vertex="1">
                    <mxGeometry y="60" width="166" height="30" as="geometry"/>
                </mxCell>
                <mxCell id="595" value="「削除」をクリック" style="text;align=center;verticalAlign=middle;spacingLeft=4;spacingRight=4;overflow=hidden;points=[[0,0.5],[1,0.5]];portConstraint=eastwest;rotatable=0;whiteSpace=wrap;html=1;shadow=0;fontFamily=Helvetica;fontSize=12;strokeColor=#D6B656;rounded=1;strokeWidth=3;" parent="588" vertex="1">
                    <mxGeometry y="90" width="166" height="30" as="geometry"/>
                </mxCell>
                <mxCell id="589" value="「登録」をクリック" style="text;align=center;verticalAlign=middle;spacingLeft=4;spacingRight=4;overflow=hidden;points=[[0,0.5],[1,0.5]];portConstraint=eastwest;rotatable=0;whiteSpace=wrap;html=1;shadow=0;fontFamily=Helvetica;fontSize=12;strokeColor=#D6B656;rounded=1;strokeWidth=3;" parent="588" vertex="1">
                    <mxGeometry y="120" width="166" height="30" as="geometry"/>
                </mxCell>
                <mxCell id="596" value="" style="endArrow=classic;html=1;fontFamily=Helvetica;fontSize=12;fontColor=default;startSize=30;edgeStyle=elbowEdgeStyle;elbow=vertical;entryX=0.462;entryY=0;entryDx=0;entryDy=0;entryPerimeter=0;exitX=0.897;exitY=1;exitDx=0;exitDy=0;exitPerimeter=0;rounded=1;strokeWidth=3;" parent="1" source="537" target="547" edge="1">
                    <mxGeometry width="50" height="50" relative="1" as="geometry">
                        <mxPoint x="2824.0000000000005" y="90" as="sourcePoint"/>
                        <mxPoint x="2747.5660000000003" y="152" as="targetPoint"/>
                        <Array as="points">
                            <mxPoint x="2884.57" y="122"/>
                        </Array>
                    </mxGeometry>
                </mxCell>
                <mxCell id="597" value="" style="edgeStyle=orthogonalEdgeStyle;endArrow=classic;html=1;rounded=1;endSize=8;startSize=8;labelBackgroundColor=default;strokeColor=default;fontFamily=Helvetica;fontSize=11;fontColor=default;shape=connector;strokeWidth=3;" parent="1" source="550" edge="1">
                    <mxGeometry width="50" height="50" relative="1" as="geometry">
                        <mxPoint x="3058" y="249" as="sourcePoint"/>
                        <mxPoint x="1048" y="157" as="targetPoint"/>
                        <Array as="points">
                            <mxPoint x="3060" y="249"/>
                            <mxPoint x="3060" y="659"/>
                            <mxPoint x="876" y="659"/>
                            <mxPoint x="876" y="125"/>
                            <mxPoint x="1048" y="125"/>
                        </Array>
                    </mxGeometry>
                </mxCell>
                <mxCell id="598" value="成功" style="text;strokeColor=none;fillColor=none;align=left;verticalAlign=top;spacingLeft=4;spacingRight=4;overflow=hidden;rotatable=0;points=[[0,0.5],[1,0.5]];portConstraint=eastwest;whiteSpace=wrap;html=1;shadow=0;fontFamily=Helvetica;fontSize=10;fontColor=default;startSize=30;fontStyle=1;rounded=1;strokeWidth=3;" parent="1" vertex="1">
                    <mxGeometry x="3078" y="265.5" width="37" height="21" as="geometry"/>
                </mxCell>
                <mxCell id="599" value="「商品詳細」画面" style="swimlane;fontStyle=1;childLayout=stackLayout;horizontal=1;startSize=26;fillColor=#fff2cc;horizontalStack=0;resizeParent=1;resizeParentMax=0;resizeLast=0;collapsible=1;marginBottom=0;html=1;shadow=0;strokeColor=#d6b656;fontFamily=Helvetica;fontSize=12;rounded=1;strokeWidth=3;" parent="1" vertex="1">
                    <mxGeometry x="2532" y="173" width="183" height="56" as="geometry"/>
                </mxCell>
                <mxCell id="600" value="「商品更新」をクリック" style="text;strokeColor=none;fillColor=none;align=center;verticalAlign=middle;spacingLeft=4;spacingRight=4;overflow=hidden;rotatable=0;points=[[0,0.5],[1,0.5]];portConstraint=eastwest;whiteSpace=wrap;html=1;shadow=0;fontFamily=Helvetica;fontSize=12;fontColor=default;startSize=30;rounded=1;strokeWidth=3;" parent="599" vertex="1">
                    <mxGeometry y="26" width="183" height="30" as="geometry"/>
                </mxCell>
                <mxCell id="601" value="「商品編集」画面" style="swimlane;fontStyle=1;childLayout=stackLayout;horizontal=1;startSize=26;fillColor=#fff2cc;horizontalStack=0;resizeParent=1;resizeParentMax=0;resizeLast=0;collapsible=1;marginBottom=0;html=1;shadow=0;strokeColor=#d6b656;fontFamily=Helvetica;fontSize=12;rounded=1;strokeWidth=3;" parent="1" vertex="1">
                    <mxGeometry x="2532" y="270.13" width="183" height="58" as="geometry"/>
                </mxCell>
                <mxCell id="602" value="「更新」をクリック" style="text;strokeColor=none;fillColor=none;align=center;verticalAlign=middle;spacingLeft=4;spacingRight=4;overflow=hidden;rotatable=0;points=[[0,0.5],[1,0.5]];portConstraint=eastwest;whiteSpace=wrap;html=1;shadow=0;fontFamily=Helvetica;fontSize=12;fontColor=default;startSize=30;rounded=1;strokeWidth=3;" parent="601" vertex="1">
                    <mxGeometry y="26" width="183" height="32" as="geometry"/>
                </mxCell>
                <mxCell id="605" value="「商品削除」画面" style="swimlane;fontStyle=1;childLayout=stackLayout;horizontal=1;startSize=26;fillColor=#fff2cc;horizontalStack=0;resizeParent=1;resizeParentMax=0;resizeLast=0;collapsible=1;marginBottom=0;html=1;shadow=0;strokeColor=#d6b656;fontFamily=Helvetica;fontSize=12;rounded=1;strokeWidth=3;" parent="1" vertex="1">
                    <mxGeometry x="2532" y="375" width="183" height="59" as="geometry"/>
                </mxCell>
                <mxCell id="606" value="「削除」をクリック" style="text;strokeColor=none;fillColor=none;align=center;verticalAlign=middle;spacingLeft=4;spacingRight=4;overflow=hidden;rotatable=0;points=[[0,0.5],[1,0.5]];portConstraint=eastwest;whiteSpace=wrap;html=1;shadow=0;fontFamily=Helvetica;fontSize=12;fontColor=default;startSize=30;rounded=1;strokeWidth=3;" parent="605" vertex="1">
                    <mxGeometry y="26" width="183" height="33" as="geometry"/>
                </mxCell>
                <mxCell id="607" value="" style="endArrow=classic;html=1;fontFamily=Helvetica;fontSize=12;fontColor=default;startSize=30;edgeStyle=orthogonalEdgeStyle;elbow=vertical;curved=1;rounded=1;strokeWidth=3;" parent="1" edge="1">
                    <mxGeometry width="50" height="50" relative="1" as="geometry">
                        <mxPoint x="2722" y="421.76" as="sourcePoint"/>
                        <mxPoint x="2720" y="394.76" as="targetPoint"/>
                        <Array as="points">
                            <mxPoint x="2764" y="421.76"/>
                            <mxPoint x="2764" y="394.76"/>
                        </Array>
                    </mxGeometry>
                </mxCell>
                <mxCell id="609" value="「商品登録」画面" style="swimlane;fontStyle=1;childLayout=stackLayout;horizontal=1;startSize=26;fillColor=#fff2cc;horizontalStack=0;resizeParent=1;resizeParentMax=0;resizeLast=0;collapsible=1;marginBottom=0;html=1;shadow=0;strokeColor=#d6b656;fontFamily=Helvetica;fontSize=12;rounded=1;strokeWidth=3;" parent="1" vertex="1">
                    <mxGeometry x="2532" y="476" width="183" height="59" as="geometry"/>
                </mxCell>
                <mxCell id="610" value="「新規登録」をクリック" style="text;strokeColor=none;fillColor=none;align=center;verticalAlign=middle;spacingLeft=4;spacingRight=4;overflow=hidden;rotatable=0;points=[[0,0.5],[1,0.5]];portConstraint=eastwest;whiteSpace=wrap;html=1;shadow=0;fontFamily=Helvetica;fontSize=12;fontColor=default;startSize=30;rounded=1;strokeWidth=3;" parent="609" vertex="1">
                    <mxGeometry y="26" width="183" height="33" as="geometry"/>
                </mxCell>
                <mxCell id="611" value="" style="endArrow=classic;html=1;fontFamily=Helvetica;fontSize=12;fontColor=default;startSize=30;edgeStyle=orthogonalEdgeStyle;elbow=vertical;curved=1;rounded=1;strokeWidth=3;" parent="1" edge="1">
                    <mxGeometry width="50" height="50" relative="1" as="geometry">
                        <mxPoint x="2720" y="521.5400000000001" as="sourcePoint"/>
                        <mxPoint x="2718" y="494.5400000000001" as="targetPoint"/>
                        <Array as="points">
                            <mxPoint x="2762" y="521.54"/>
                            <mxPoint x="2762" y="494.53999999999996"/>
                        </Array>
                    </mxGeometry>
                </mxCell>
                <mxCell id="613" value="" style="endArrow=classic;html=1;fontFamily=Helvetica;fontSize=12;fontColor=default;startSize=30;edgeStyle=elbowEdgeStyle;elbow=vertical;entryX=0.486;entryY=0;entryDx=0;entryDy=0;entryPerimeter=0;rounded=1;strokeWidth=3;" parent="1" target="579" edge="1">
                    <mxGeometry width="50" height="50" relative="1" as="geometry">
                        <mxPoint x="1991.4299999999998" y="93" as="sourcePoint"/>
                        <mxPoint x="1914.9959999999996" y="155" as="targetPoint"/>
                        <Array as="points">
                            <mxPoint x="1955.9299999999998" y="117"/>
                        </Array>
                    </mxGeometry>
                </mxCell>
                <mxCell id="633" value="" style="endArrow=classic;html=1;fontFamily=Helvetica;fontSize=12;fontColor=default;startSize=30;edgeStyle=orthogonalEdgeStyle;elbow=vertical;curved=1;rounded=1;strokeWidth=3;" parent="1" edge="1">
                    <mxGeometry width="50" height="50" relative="1" as="geometry">
                        <mxPoint x="2720" y="316" as="sourcePoint"/>
                        <mxPoint x="2718" y="289" as="targetPoint"/>
                        <Array as="points">
                            <mxPoint x="2762" y="316"/>
                            <mxPoint x="2762" y="289"/>
                        </Array>
                    </mxGeometry>
                </mxCell>
                <mxCell id="636" value="" style="endArrow=classic;html=1;fontFamily=Helvetica;fontSize=12;fontColor=default;startSize=30;edgeStyle=elbowEdgeStyle;elbow=vertical;entryX=0.43;entryY=-0.007;entryDx=0;entryDy=0;entryPerimeter=0;rounded=1;strokeWidth=3;" parent="1" target="588" edge="1">
                    <mxGeometry width="50" height="50" relative="1" as="geometry">
                        <mxPoint x="2542" y="97" as="sourcePoint"/>
                        <mxPoint x="2434.998" y="155" as="targetPoint"/>
                        <Array as="points">
                            <mxPoint x="2692" y="148"/>
                            <mxPoint x="2550" y="144"/>
                            <mxPoint x="2568" y="147"/>
                            <mxPoint x="2733" y="147"/>
                            <mxPoint x="2558" y="117"/>
                            <mxPoint x="2512.99" y="117"/>
                        </Array>
                    </mxGeometry>
                </mxCell>
                <mxCell id="637" value="失敗" style="text;strokeColor=none;fillColor=none;align=left;verticalAlign=top;spacingLeft=4;spacingRight=4;overflow=hidden;rotatable=0;points=[[0,0.5],[1,0.5]];portConstraint=eastwest;whiteSpace=wrap;html=1;shadow=0;fontFamily=Helvetica;fontSize=10;fontColor=default;startSize=30;fontStyle=1;rounded=1;strokeWidth=3;" parent="1" vertex="1">
                    <mxGeometry x="2746" y="265.5" width="37" height="21" as="geometry"/>
                </mxCell>
                <mxCell id="638" value="失敗" style="text;strokeColor=none;fillColor=none;align=left;verticalAlign=top;spacingLeft=4;spacingRight=4;overflow=hidden;rotatable=0;points=[[0,0.5],[1,0.5]];portConstraint=eastwest;whiteSpace=wrap;html=1;shadow=0;fontFamily=Helvetica;fontSize=10;fontColor=default;startSize=30;fontStyle=1;rounded=1;strokeWidth=3;" parent="1" vertex="1">
                    <mxGeometry x="2751" y="368.5" width="37" height="21" as="geometry"/>
                </mxCell>
                <mxCell id="639" value="失敗" style="text;strokeColor=none;fillColor=none;align=left;verticalAlign=top;spacingLeft=4;spacingRight=4;overflow=hidden;rotatable=0;points=[[0,0.5],[1,0.5]];portConstraint=eastwest;whiteSpace=wrap;html=1;shadow=0;fontFamily=Helvetica;fontSize=10;fontColor=default;startSize=30;fontStyle=1;rounded=1;strokeWidth=3;" parent="1" vertex="1">
                    <mxGeometry x="2748" y="471.5" width="37" height="21" as="geometry"/>
                </mxCell>
                <mxCell id="643" value="" style="edgeStyle=segmentEdgeStyle;endArrow=classic;html=1;curved=0;rounded=1;endSize=8;startSize=8;labelBackgroundColor=default;strokeColor=default;fontFamily=Helvetica;fontSize=11;fontColor=default;shape=connector;strokeWidth=3;" parent="1" edge="1">
                    <mxGeometry width="50" height="50" relative="1" as="geometry">
                        <mxPoint x="2623" y="234.13" as="sourcePoint"/>
                        <mxPoint x="2623" y="270.13" as="targetPoint"/>
                        <Array as="points">
                            <mxPoint x="2623" y="265.13"/>
                            <mxPoint x="2623" y="265.13"/>
                        </Array>
                    </mxGeometry>
                </mxCell>
                <mxCell id="647" value="" style="edgeStyle=elbowEdgeStyle;elbow=horizontal;endArrow=classic;html=1;curved=0;rounded=1;endSize=8;startSize=8;labelBackgroundColor=default;strokeColor=default;fontFamily=Helvetica;fontSize=11;fontColor=default;shape=connector;strokeWidth=3;" parent="1" edge="1">
                    <mxGeometry width="50" height="50" relative="1" as="geometry">
                        <mxPoint x="2529" y="323" as="sourcePoint"/>
                        <mxPoint x="2529" y="196" as="targetPoint"/>
                        <Array as="points">
                            <mxPoint x="2497" y="261"/>
                            <mxPoint x="2498" y="263"/>
                            <mxPoint x="2496" y="273"/>
                            <mxPoint x="2496" y="269"/>
                            <mxPoint x="2564.94" y="326.5"/>
                            <mxPoint x="2565.94" y="273.5"/>
                        </Array>
                    </mxGeometry>
                </mxCell>
                <mxCell id="648" value="成功" style="text;strokeColor=none;fillColor=none;align=left;verticalAlign=top;spacingLeft=4;spacingRight=4;overflow=hidden;rotatable=0;points=[[0,0.5],[1,0.5]];portConstraint=eastwest;whiteSpace=wrap;html=1;shadow=0;fontFamily=Helvetica;fontSize=10;fontColor=default;startSize=30;fontStyle=1;rounded=1;strokeWidth=3;" parent="1" vertex="1">
                    <mxGeometry x="2500" y="297" width="37" height="21" as="geometry"/>
                </mxCell>
                <mxCell id="649" value="" style="edgeStyle=elbowEdgeStyle;elbow=horizontal;endArrow=classic;html=1;curved=0;rounded=1;endSize=8;startSize=8;labelBackgroundColor=default;strokeColor=default;fontFamily=Helvetica;fontSize=11;fontColor=default;shape=connector;strokeWidth=3;" parent="1" edge="1">
                    <mxGeometry width="50" height="50" relative="1" as="geometry">
                        <mxPoint x="2529" y="323" as="sourcePoint"/>
                        <mxPoint x="2529" y="196" as="targetPoint"/>
                        <Array as="points">
                            <mxPoint x="2497" y="261"/>
                            <mxPoint x="2498" y="263"/>
                            <mxPoint x="2496" y="273"/>
                            <mxPoint x="2496" y="269"/>
                            <mxPoint x="2564.94" y="326.5"/>
                            <mxPoint x="2565.94" y="273.5"/>
                        </Array>
                    </mxGeometry>
                </mxCell>
                <mxCell id="650" value="成功" style="text;strokeColor=none;fillColor=none;align=left;verticalAlign=top;spacingLeft=4;spacingRight=4;overflow=hidden;rotatable=0;points=[[0,0.5],[1,0.5]];portConstraint=eastwest;whiteSpace=wrap;html=1;shadow=0;fontFamily=Helvetica;fontSize=10;fontColor=default;startSize=30;fontStyle=1;rounded=1;strokeWidth=3;" parent="1" vertex="1">
                    <mxGeometry x="2501.5" y="495" width="37" height="21" as="geometry"/>
                </mxCell>
                <mxCell id="651" value="" style="edgeStyle=elbowEdgeStyle;elbow=horizontal;endArrow=classic;html=1;curved=0;rounded=1;endSize=8;startSize=8;labelBackgroundColor=default;strokeColor=default;fontFamily=Helvetica;fontSize=11;fontColor=default;shape=connector;strokeWidth=3;" parent="1" edge="1">
                    <mxGeometry width="50" height="50" relative="1" as="geometry">
                        <mxPoint x="2530.5" y="521" as="sourcePoint"/>
                        <mxPoint x="2528" y="182" as="targetPoint"/>
                        <Array as="points">
                            <mxPoint x="2480" y="356"/>
                            <mxPoint x="2499.5" y="461"/>
                            <mxPoint x="2497.5" y="471"/>
                            <mxPoint x="2497.5" y="467"/>
                            <mxPoint x="2566.44" y="524.5"/>
                            <mxPoint x="2567.44" y="471.5"/>
                        </Array>
                    </mxGeometry>
                </mxCell>
                <mxCell id="653" value="" style="edgeStyle=orthogonalEdgeStyle;endArrow=classic;html=1;rounded=1;endSize=8;startSize=8;labelBackgroundColor=default;strokeColor=default;fontFamily=Helvetica;fontSize=11;fontColor=default;shape=connector;elbow=vertical;strokeWidth=3;" parent="1" edge="1">
                    <mxGeometry width="50" height="50" relative="1" as="geometry">
                        <mxPoint x="2532" y="417" as="sourcePoint"/>
                        <mxPoint x="2583" y="271" as="targetPoint"/>
                        <Array as="points">
                            <mxPoint x="2462" y="417"/>
                            <mxPoint x="2462" y="249"/>
                            <mxPoint x="2583" y="249"/>
                        </Array>
                    </mxGeometry>
                </mxCell>
                <mxCell id="654" value="成功" style="text;strokeColor=none;fillColor=none;align=left;verticalAlign=top;spacingLeft=4;spacingRight=4;overflow=hidden;rotatable=0;points=[[0,0.5],[1,0.5]];portConstraint=eastwest;whiteSpace=wrap;html=1;shadow=0;fontFamily=Helvetica;fontSize=10;fontColor=default;startSize=30;fontStyle=1;rounded=1;strokeWidth=3;" parent="1" vertex="1">
                    <mxGeometry x="2500" y="385" width="37" height="21" as="geometry"/>
                </mxCell>
                <mxCell id="655" value="" style="edgeStyle=elbowEdgeStyle;elbow=horizontal;endArrow=classic;html=1;curved=0;rounded=1;endSize=8;startSize=8;entryX=0.995;entryY=0.241;entryDx=0;entryDy=0;entryPerimeter=0;strokeWidth=3;" parent="1" target="599" edge="1">
                    <mxGeometry width="50" height="50" relative="1" as="geometry">
                        <mxPoint x="2861" y="242.5" as="sourcePoint"/>
                        <mxPoint x="2811" y="357.5" as="targetPoint"/>
                        <Array as="points">
                            <mxPoint x="2816" y="228.5"/>
                            <mxPoint x="2774" y="204.5"/>
                            <mxPoint x="2794" y="206.5"/>
                        </Array>
                    </mxGeometry>
                </mxCell>
                <mxCell id="657" value="" style="edgeStyle=orthogonalEdgeStyle;elbow=vertical;endArrow=classic;html=1;rounded=1;endSize=8;startSize=8;strokeWidth=3;" parent="1" edge="1">
                    <mxGeometry width="50" height="50" relative="1" as="geometry">
                        <mxPoint x="2860" y="274.5" as="sourcePoint"/>
                        <mxPoint x="2661" y="268.5" as="targetPoint"/>
                        <Array as="points">
                            <mxPoint x="2786" y="274.5"/>
                            <mxPoint x="2786" y="246.5"/>
                            <mxPoint x="2661" y="246.5"/>
                        </Array>
                    </mxGeometry>
                </mxCell>
                <mxCell id="658" value="" style="edgeStyle=orthogonalEdgeStyle;elbow=vertical;endArrow=classic;html=1;rounded=1;endSize=8;startSize=8;strokeWidth=3;" parent="1" edge="1">
                    <mxGeometry width="50" height="50" relative="1" as="geometry">
                        <mxPoint x="2861" y="307.5" as="sourcePoint"/>
                        <mxPoint x="2620" y="375.5" as="targetPoint"/>
                        <Array as="points">
                            <mxPoint x="2861" y="307.5"/>
                            <mxPoint x="2820" y="307.5"/>
                            <mxPoint x="2820" y="324.5"/>
                            <mxPoint x="2734" y="324.5"/>
                            <mxPoint x="2734" y="353.5"/>
                            <mxPoint x="2620" y="353.5"/>
                        </Array>
                    </mxGeometry>
                </mxCell>
                <mxCell id="659" value="" style="edgeStyle=orthogonalEdgeStyle;elbow=vertical;endArrow=classic;html=1;rounded=1;endSize=8;startSize=8;strokeWidth=3;" parent="1" source="589" edge="1">
                    <mxGeometry width="50" height="50" relative="1" as="geometry">
                        <mxPoint x="2825" y="325.13" as="sourcePoint"/>
                        <mxPoint x="2622" y="471.5" as="targetPoint"/>
                        <Array as="points">
                            <mxPoint x="2805" y="337.5"/>
                            <mxPoint x="2805" y="449.5"/>
                            <mxPoint x="2622" y="449.5"/>
                        </Array>
                    </mxGeometry>
                </mxCell>
                <mxCell id="661" value="「顧客情報一覧」画面" style="swimlane;fontStyle=1;childLayout=stackLayout;horizontal=1;startSize=30;horizontalStack=0;resizeParent=1;resizeParentMax=0;resizeLast=0;collapsible=1;marginBottom=0;whiteSpace=wrap;html=1;shadow=0;strokeColor=#d6b656;fontFamily=Helvetica;fontSize=12;fillColor=#fff2cc;align=center;rounded=1;strokeWidth=3;" parent="1" vertex="1">
                    <mxGeometry x="2228" y="173" width="180" height="60" as="geometry"/>
                </mxCell>
                <mxCell id="662" value="「詳細」をクリック" style="text;align=center;verticalAlign=middle;spacingLeft=4;spacingRight=4;overflow=hidden;points=[[0,0.5],[1,0.5]];portConstraint=eastwest;rotatable=0;whiteSpace=wrap;html=1;shadow=0;fontFamily=Helvetica;fontSize=12;strokeColor=#D6B656;rounded=1;strokeWidth=3;" parent="661" vertex="1">
                    <mxGeometry y="30" width="180" height="30" as="geometry"/>
                </mxCell>
                <mxCell id="663" value="「顧客情報詳細」画面" style="swimlane;fontStyle=1;childLayout=stackLayout;horizontal=1;startSize=30;horizontalStack=0;resizeParent=1;resizeParentMax=0;resizeLast=0;collapsible=1;marginBottom=0;whiteSpace=wrap;html=1;shadow=0;strokeColor=#d6b656;fontFamily=Helvetica;fontSize=12;fillColor=#fff2cc;align=center;rounded=1;strokeWidth=3;" parent="1" vertex="1">
                    <mxGeometry x="2228" y="272.5" width="181" height="90" as="geometry"/>
                </mxCell>
                <mxCell id="665" value="「会員状況更新」をクリック" style="text;align=center;verticalAlign=middle;spacingLeft=4;spacingRight=4;overflow=hidden;points=[[0,0.5],[1,0.5]];portConstraint=eastwest;rotatable=0;whiteSpace=wrap;html=1;shadow=0;fontFamily=Helvetica;fontSize=12;strokeColor=#D6B656;rounded=1;strokeWidth=3;" parent="663" vertex="1">
                    <mxGeometry y="30" width="181" height="30" as="geometry"/>
                </mxCell>
                <mxCell id="664" value="「詳細」をクリック" style="text;align=center;verticalAlign=middle;spacingLeft=4;spacingRight=4;overflow=hidden;points=[[0,0.5],[1,0.5]];portConstraint=eastwest;rotatable=0;whiteSpace=wrap;html=1;shadow=0;fontFamily=Helvetica;fontSize=12;strokeColor=#D6B656;rounded=1;strokeWidth=3;" parent="663" vertex="1">
                    <mxGeometry y="60" width="181" height="30" as="geometry"/>
                </mxCell>
                <mxCell id="666" value="「注文履歴一覧」画面" style="swimlane;fontStyle=1;childLayout=stackLayout;horizontal=1;startSize=30;horizontalStack=0;resizeParent=1;resizeParentMax=0;resizeLast=0;collapsible=1;marginBottom=0;whiteSpace=wrap;html=1;shadow=0;strokeColor=#d6b656;fontFamily=Helvetica;fontSize=12;fillColor=#fff2cc;align=center;rounded=1;strokeWidth=3;" parent="1" vertex="1">
                    <mxGeometry x="1939" y="172.5" width="180" height="60" as="geometry"/>
                </mxCell>
                <mxCell id="667" value="「詳細」をクリック" style="text;align=center;verticalAlign=middle;spacingLeft=4;spacingRight=4;overflow=hidden;points=[[0,0.5],[1,0.5]];portConstraint=eastwest;rotatable=0;whiteSpace=wrap;html=1;shadow=0;fontFamily=Helvetica;fontSize=12;strokeColor=#D6B656;rounded=1;strokeWidth=3;" parent="666" vertex="1">
                    <mxGeometry y="30" width="180" height="30" as="geometry"/>
                </mxCell>
                <mxCell id="668" value="「顧客情報詳細」画面" style="swimlane;fontStyle=1;childLayout=stackLayout;horizontal=1;startSize=30;horizontalStack=0;resizeParent=1;resizeParentMax=0;resizeLast=0;collapsible=1;marginBottom=0;whiteSpace=wrap;html=1;shadow=0;strokeColor=#d6b656;fontFamily=Helvetica;fontSize=12;fillColor=#fff2cc;align=center;rounded=1;strokeWidth=3;" parent="1" vertex="1">
                    <mxGeometry x="1939" y="274" width="181" height="60" as="geometry"/>
                </mxCell>
                <mxCell id="669" value="「注文状況更新」をクリック" style="text;align=center;verticalAlign=middle;spacingLeft=4;spacingRight=4;overflow=hidden;points=[[0,0.5],[1,0.5]];portConstraint=eastwest;rotatable=0;whiteSpace=wrap;html=1;shadow=0;fontFamily=Helvetica;fontSize=12;strokeColor=#D6B656;rounded=1;strokeWidth=3;" parent="668" vertex="1">
                    <mxGeometry y="30" width="181" height="30" as="geometry"/>
                </mxCell>
                <mxCell id="671" value="" style="edgeStyle=segmentEdgeStyle;endArrow=classic;html=1;curved=0;rounded=1;endSize=8;startSize=8;labelBackgroundColor=default;strokeColor=default;fontFamily=Helvetica;fontSize=11;fontColor=default;shape=connector;strokeWidth=3;" parent="1" edge="1">
                    <mxGeometry width="50" height="50" relative="1" as="geometry">
                        <mxPoint x="2027" y="238" as="sourcePoint"/>
                        <mxPoint x="2027" y="274" as="targetPoint"/>
                        <Array as="points">
                            <mxPoint x="2027.5" y="274"/>
                            <mxPoint x="2027.5" y="274"/>
                        </Array>
                    </mxGeometry>
                </mxCell>
                <mxCell id="672" value="" style="endArrow=classic;html=1;fontFamily=Helvetica;fontSize=12;fontColor=default;startSize=30;edgeStyle=elbowEdgeStyle;elbow=vertical;rounded=1;strokeWidth=3;" parent="1" edge="1">
                    <mxGeometry width="50" height="50" relative="1" as="geometry">
                        <mxPoint x="2392.49" y="96.5" as="sourcePoint"/>
                        <mxPoint x="2322" y="174" as="targetPoint"/>
                        <Array as="points">
                            <mxPoint x="2356.99" y="120.5"/>
                        </Array>
                    </mxGeometry>
                </mxCell>
                <mxCell id="673" value="" style="endArrow=classic;html=1;fontFamily=Helvetica;fontSize=12;fontColor=default;startSize=30;edgeStyle=elbowEdgeStyle;elbow=vertical;entryX=0.483;entryY=0.008;entryDx=0;entryDy=0;entryPerimeter=0;rounded=1;strokeWidth=3;" parent="1" target="666" edge="1">
                    <mxGeometry width="50" height="50" relative="1" as="geometry">
                        <mxPoint x="2196.5299999999997" y="93.48" as="sourcePoint"/>
                        <mxPoint x="2072" y="168.99999999999997" as="targetPoint"/>
                        <Array as="points">
                            <mxPoint x="2161.0299999999997" y="117.48"/>
                        </Array>
                    </mxGeometry>
                </mxCell>
                <mxCell id="676" value="" style="edgeStyle=segmentEdgeStyle;endArrow=classic;html=1;curved=0;rounded=1;endSize=8;startSize=8;elbow=vertical;strokeWidth=3;" parent="1" edge="1">
                    <mxGeometry width="50" height="50" relative="1" as="geometry">
                        <mxPoint x="1934" y="321" as="sourcePoint"/>
                        <mxPoint x="1980" y="173" as="targetPoint"/>
                        <Array as="points">
                            <mxPoint x="1937" y="321"/>
                            <mxPoint x="1911" y="321"/>
                            <mxPoint x="1911" y="144"/>
                            <mxPoint x="1980" y="144"/>
                        </Array>
                    </mxGeometry>
                </mxCell>
                <mxCell id="678" value="" style="edgeStyle=segmentEdgeStyle;endArrow=classic;html=1;curved=0;rounded=1;endSize=8;startSize=8;labelBackgroundColor=default;strokeColor=default;fontFamily=Helvetica;fontSize=11;fontColor=default;shape=connector;strokeWidth=3;" parent="1" edge="1">
                    <mxGeometry width="50" height="50" relative="1" as="geometry">
                        <mxPoint x="2310" y="234.5" as="sourcePoint"/>
                        <mxPoint x="2310" y="270.5" as="targetPoint"/>
                        <Array as="points">
                            <mxPoint x="2310.5" y="270.5"/>
                            <mxPoint x="2310.5" y="270.5"/>
                        </Array>
                    </mxGeometry>
                </mxCell>
                <mxCell id="682" value="" style="edgeStyle=segmentEdgeStyle;endArrow=classic;html=1;curved=0;rounded=1;endSize=8;startSize=8;elbow=vertical;exitX=-0.028;exitY=0.55;exitDx=0;exitDy=0;exitPerimeter=0;strokeWidth=3;" parent="1" source="664" edge="1">
                    <mxGeometry width="50" height="50" relative="1" as="geometry">
                        <mxPoint x="2201" y="349" as="sourcePoint"/>
                        <mxPoint x="2054" y="272" as="targetPoint"/>
                        <Array as="points">
                            <mxPoint x="2178" y="349"/>
                            <mxPoint x="2178" y="245"/>
                            <mxPoint x="2054" y="245"/>
                        </Array>
                    </mxGeometry>
                </mxCell>
                <mxCell id="683" value="" style="edgeStyle=segmentEdgeStyle;endArrow=classic;html=1;curved=0;rounded=1;endSize=8;startSize=8;elbow=vertical;strokeWidth=3;" parent="1" edge="1">
                    <mxGeometry width="50" height="50" relative="1" as="geometry">
                        <mxPoint x="2224" y="319" as="sourcePoint"/>
                        <mxPoint x="2270" y="171" as="targetPoint"/>
                        <Array as="points">
                            <mxPoint x="2195" y="319"/>
                            <mxPoint x="2195" y="142"/>
                            <mxPoint x="2270" y="142"/>
                        </Array>
                    </mxGeometry>
                </mxCell>
                <mxCell id="691" value="" style="edgeStyle=elbowEdgeStyle;elbow=horizontal;endArrow=classic;html=1;curved=0;rounded=1;endSize=8;startSize=8;exitX=-0.01;exitY=0.567;exitDx=0;exitDy=0;exitPerimeter=0;fontStyle=0;strokeWidth=3;" parent="1" source="740" edge="1">
                    <mxGeometry width="50" height="50" relative="1" as="geometry">
                        <mxPoint x="-577" y="499.27" as="sourcePoint"/>
                        <mxPoint x="63" y="153" as="targetPoint"/>
                        <Array as="points">
                            <mxPoint x="-585" y="215"/>
                            <mxPoint x="-585" y="344"/>
                            <mxPoint x="-587" y="511"/>
                            <mxPoint x="-587" y="341"/>
                            <mxPoint x="-542" y="385"/>
                            <mxPoint x="-558" y="341"/>
                        </Array>
                    </mxGeometry>
                </mxCell>
                <mxCell id="696" value="「レビュー一覧」画面" style="swimlane;fontStyle=1;childLayout=stackLayout;horizontal=1;startSize=30;horizontalStack=0;resizeParent=1;resizeParentMax=0;resizeLast=0;collapsible=1;marginBottom=0;whiteSpace=wrap;html=1;shadow=0;strokeColor=#d6b656;fontFamily=Helvetica;fontSize=12;fillColor=#fff2cc;align=center;rounded=1;strokeWidth=3;" parent="1" vertex="1">
                    <mxGeometry x="-854" y="362.5" width="183" height="60" as="geometry"/>
                </mxCell>
                <mxCell id="697" value="「戻る」をクリック" style="text;align=center;verticalAlign=middle;spacingLeft=4;spacingRight=4;overflow=hidden;points=[[0,0.5],[1,0.5]];portConstraint=eastwest;rotatable=0;whiteSpace=wrap;html=1;shadow=0;fontFamily=Helvetica;fontSize=12;strokeColor=#D6B656;rounded=1;strokeWidth=3;" parent="696" vertex="1">
                    <mxGeometry y="30" width="183" height="30" as="geometry"/>
                </mxCell>
                <mxCell id="698" value="" style="edgeStyle=segmentEdgeStyle;endArrow=classic;html=1;curved=0;rounded=1;endSize=8;startSize=8;labelBackgroundColor=default;strokeColor=default;fontFamily=Helvetica;fontSize=11;fontColor=default;shape=connector;entryX=0.383;entryY=-0.042;entryDx=0;entryDy=0;entryPerimeter=0;fontStyle=0;strokeWidth=3;" parent="1" target="696" edge="1">
                    <mxGeometry width="50" height="50" relative="1" as="geometry">
                        <mxPoint x="-543" y="381" as="sourcePoint"/>
                        <mxPoint x="-788" y="335" as="targetPoint"/>
                        <Array as="points">
                            <mxPoint x="-605" y="381"/>
                            <mxPoint x="-605" y="335"/>
                            <mxPoint x="-784" y="335"/>
                        </Array>
                    </mxGeometry>
                </mxCell>
                <mxCell id="701" value="" style="edgeStyle=elbowEdgeStyle;elbow=horizontal;endArrow=classic;html=1;curved=0;rounded=1;endSize=8;startSize=8;fontStyle=0;strokeWidth=3;" parent="1" edge="1">
                    <mxGeometry width="50" height="50" relative="1" as="geometry">
                        <mxPoint x="-663" y="415" as="sourcePoint"/>
                        <mxPoint x="-542" y="320" as="targetPoint"/>
                        <Array as="points">
                            <mxPoint x="-632" y="358"/>
                        </Array>
                    </mxGeometry>
                </mxCell>
                <mxCell id="710" value="" style="edgeStyle=elbowEdgeStyle;elbow=horizontal;endArrow=classic;html=1;curved=0;rounded=1;endSize=8;startSize=8;fontStyle=0;strokeWidth=3;" parent="1" source="741" edge="1">
                    <mxGeometry width="50" height="50" relative="1" as="geometry">
                        <mxPoint x="-878.9870000000001" y="505" as="sourcePoint"/>
                        <mxPoint x="-859" y="378" as="targetPoint"/>
                        <Array as="points">
                            <mxPoint x="-891" y="477"/>
                        </Array>
                    </mxGeometry>
                </mxCell>
                <mxCell id="711" value="" style="edgeStyle=elbowEdgeStyle;elbow=horizontal;endArrow=classic;html=1;curved=0;rounded=1;endSize=8;startSize=8;exitX=-0.01;exitY=0.567;exitDx=0;exitDy=0;exitPerimeter=0;fontStyle=0;strokeWidth=3;" parent="1" source="516" edge="1">
                    <mxGeometry width="50" height="50" relative="1" as="geometry">
                        <mxPoint x="-864.03" y="535" as="sourcePoint"/>
                        <mxPoint x="-859" y="366" as="targetPoint"/>
                        <Array as="points">
                            <mxPoint x="-910" y="478"/>
                            <mxPoint x="-1051" y="447"/>
                        </Array>
                    </mxGeometry>
                </mxCell>
                <mxCell id="718" value="「レビュー一覧」画面" style="swimlane;fontStyle=1;childLayout=stackLayout;horizontal=1;startSize=30;horizontalStack=0;resizeParent=1;resizeParentMax=0;resizeLast=0;collapsible=1;marginBottom=0;whiteSpace=wrap;html=1;shadow=0;strokeColor=#d6b656;fontFamily=Helvetica;fontSize=12;fillColor=#fff2cc;align=center;rounded=1;strokeWidth=3;" parent="1" vertex="1">
                    <mxGeometry x="992" y="461" width="183" height="60" as="geometry"/>
                </mxCell>
                <mxCell id="719" value="「戻る」をクリック" style="text;align=center;verticalAlign=middle;spacingLeft=4;spacingRight=4;overflow=hidden;points=[[0,0.5],[1,0.5]];portConstraint=eastwest;rotatable=0;whiteSpace=wrap;html=1;shadow=0;fontFamily=Helvetica;fontSize=12;strokeColor=#D6B656;rounded=1;strokeWidth=3;" parent="718" vertex="1">
                    <mxGeometry y="30" width="183" height="30" as="geometry"/>
                </mxCell>
                <mxCell id="733" value="" style="edgeStyle=segmentEdgeStyle;endArrow=classic;html=1;curved=0;rounded=1;endSize=8;startSize=8;exitX=1.027;exitY=0.491;exitDx=0;exitDy=0;exitPerimeter=0;strokeWidth=3;" parent="1" source="731" edge="1">
                    <mxGeometry width="50" height="50" relative="1" as="geometry">
                        <mxPoint x="1216" y="378" as="sourcePoint"/>
                        <mxPoint x="1319" y="216" as="targetPoint"/>
                        <Array as="points">
                            <mxPoint x="1239" y="339"/>
                            <mxPoint x="1239" y="266"/>
                            <mxPoint x="1319" y="266"/>
                        </Array>
                    </mxGeometry>
                </mxCell>
                <mxCell id="734" value="" style="endArrow=classic;html=1;fontFamily=Helvetica;fontSize=12;fontColor=default;startSize=30;edgeStyle=elbowEdgeStyle;elbow=vertical;rounded=1;strokeWidth=3;entryX=0.714;entryY=-0.135;entryDx=0;entryDy=0;entryPerimeter=0;" parent="1" target="221" edge="1">
                    <mxGeometry width="50" height="50" relative="1" as="geometry">
                        <mxPoint x="1498" y="95" as="sourcePoint"/>
                        <mxPoint x="1630" y="137" as="targetPoint"/>
                        <Array as="points">
                            <mxPoint x="1502" y="124"/>
                        </Array>
                    </mxGeometry>
                </mxCell>
                <mxCell id="735" value="" style="edgeStyle=elbowEdgeStyle;elbow=horizontal;endArrow=classic;html=1;curved=0;rounded=1;endSize=8;startSize=8;entryX=0;entryY=0.233;entryDx=0;entryDy=0;entryPerimeter=0;strokeWidth=3;" parent="1" target="718" edge="1">
                    <mxGeometry width="50" height="50" relative="1" as="geometry">
                        <mxPoint x="989" y="369" as="sourcePoint"/>
                        <mxPoint x="1345" y="351" as="targetPoint"/>
                        <Array as="points">
                            <mxPoint x="920" y="428"/>
                            <mxPoint x="1307" y="421"/>
                        </Array>
                    </mxGeometry>
                </mxCell>
                <mxCell id="739" value="" style="edgeStyle=elbowEdgeStyle;elbow=horizontal;endArrow=classic;html=1;curved=0;rounded=1;endSize=8;startSize=8;entryX=0.226;entryY=1.231;entryDx=0;entryDy=0;entryPerimeter=0;strokeWidth=3;" parent="1" target="268" edge="1">
                    <mxGeometry width="50" height="50" relative="1" as="geometry">
                        <mxPoint x="1177" y="396.5" as="sourcePoint"/>
                        <mxPoint x="1270.056" y="226.99" as="targetPoint"/>
                        <Array as="points">
                            <mxPoint x="1270" y="313"/>
                        </Array>
                    </mxGeometry>
                </mxCell>
                <mxCell id="744" value="失敗" style="text;strokeColor=none;fillColor=none;align=left;verticalAlign=top;spacingLeft=4;spacingRight=4;overflow=hidden;rotatable=0;points=[[0,0.5],[1,0.5]];portConstraint=eastwest;whiteSpace=wrap;html=1;shadow=0;fontFamily=Helvetica;fontSize=10;fontColor=default;startSize=30;fontStyle=1;rounded=1;strokeWidth=3;" parent="1" vertex="1">
                    <mxGeometry x="-343" y="468.77" width="37" height="21" as="geometry"/>
                </mxCell>
                <mxCell id="745" value="" style="endArrow=classic;html=1;fontFamily=Helvetica;fontSize=12;fontColor=default;startSize=30;edgeStyle=orthogonalEdgeStyle;elbow=vertical;curved=1;fontStyle=0;rounded=1;strokeWidth=3;" parent="1" edge="1">
                    <mxGeometry width="50" height="50" relative="1" as="geometry">
                        <mxPoint x="-340" y="560.77" as="sourcePoint"/>
                        <mxPoint x="-342" y="500.77" as="targetPoint"/>
                        <Array as="points">
                            <mxPoint x="-290" y="560.77"/>
                            <mxPoint x="-290" y="500.77"/>
                        </Array>
                    </mxGeometry>
                </mxCell>
                <mxCell id="746" value="成功" style="text;strokeColor=none;fillColor=none;align=left;verticalAlign=top;spacingLeft=4;spacingRight=4;overflow=hidden;rotatable=0;points=[[0,0.5],[1,0.5]];portConstraint=eastwest;whiteSpace=wrap;html=1;shadow=0;fontFamily=Helvetica;fontSize=10;fontColor=default;startSize=30;fontStyle=1;rounded=1;strokeWidth=3;" parent="1" vertex="1">
                    <mxGeometry x="-627" y="531.5" width="37" height="21" as="geometry"/>
                </mxCell>
                <mxCell id="751" value="" style="edgeStyle=elbowEdgeStyle;elbow=horizontal;endArrow=classic;html=1;curved=0;rounded=1;endSize=8;startSize=8;exitX=-0.016;exitY=0.533;exitDx=0;exitDy=0;exitPerimeter=0;strokeWidth=3;" parent="1" source="719" edge="1">
                    <mxGeometry width="50" height="50" relative="1" as="geometry">
                        <mxPoint x="1351" y="371" as="sourcePoint"/>
                        <mxPoint x="990" y="308" as="targetPoint"/>
                        <Array as="points">
                            <mxPoint x="900" y="415"/>
                            <mxPoint x="976" y="313"/>
                            <mxPoint x="907" y="408"/>
                        </Array>
                    </mxGeometry>
                </mxCell>
                <mxCell id="775" value="" style="edgeStyle=segmentEdgeStyle;endArrow=classic;html=1;curved=0;rounded=1;endSize=8;startSize=8;labelBackgroundColor=default;strokeColor=default;fontFamily=Helvetica;fontSize=11;fontColor=default;shape=connector;entryX=0.179;entryY=0.017;entryDx=0;entryDy=0;entryPerimeter=0;strokeWidth=3;" parent="1" target="356" edge="1">
                    <mxGeometry width="50" height="50" relative="1" as="geometry">
                        <mxPoint x="70" y="328.13" as="sourcePoint"/>
                        <mxPoint x="115" y="122" as="targetPoint"/>
                        <Array as="points">
                            <mxPoint x="38" y="328"/>
                            <mxPoint x="38" y="113"/>
                            <mxPoint x="101" y="113"/>
                        </Array>
                    </mxGeometry>
                </mxCell>
                <mxCell id="814" value="" style="edgeStyle=segmentEdgeStyle;endArrow=classic;html=1;curved=0;rounded=1;endSize=8;startSize=8;labelBackgroundColor=default;strokeColor=default;fontFamily=Helvetica;fontSize=11;fontColor=default;shape=connector;strokeWidth=3;" parent="1" edge="1">
                    <mxGeometry width="50" height="50" relative="1" as="geometry">
                        <mxPoint x="-455" y="432" as="sourcePoint"/>
                        <mxPoint x="-455" y="475" as="targetPoint"/>
                        <Array as="points">
                            <mxPoint x="-455" y="454"/>
                            <mxPoint x="-455" y="454"/>
                        </Array>
                    </mxGeometry>
                </mxCell>
                <mxCell id="816" value="" style="edgeStyle=segmentEdgeStyle;endArrow=classic;html=1;curved=0;rounded=1;endSize=8;startSize=8;labelBackgroundColor=default;strokeColor=default;fontFamily=Helvetica;fontSize=11;fontColor=default;shape=connector;fontStyle=0;strokeWidth=3;entryX=0.5;entryY=0;entryDx=0;entryDy=0;" parent="1" target="360" edge="1">
                    <mxGeometry width="50" height="50" relative="1" as="geometry">
                        <mxPoint x="247" y="290.1" as="sourcePoint"/>
                        <mxPoint x="156" y="408.1" as="targetPoint"/>
                        <Array as="points">
                            <mxPoint x="314" y="290"/>
                            <mxPoint x="314" y="363"/>
                            <mxPoint x="156" y="363"/>
                            <mxPoint x="156" y="381"/>
                            <mxPoint x="157" y="381"/>
                        </Array>
                    </mxGeometry>
                </mxCell>
                <mxCell id="823" value="" style="endArrow=classic;html=1;fontFamily=Helvetica;fontSize=12;fontColor=default;startSize=30;edgeStyle=orthogonalEdgeStyle;elbow=vertical;curved=1;rounded=1;strokeWidth=3;" parent="1" edge="1">
                    <mxGeometry width="50" height="50" relative="1" as="geometry">
                        <mxPoint x="458" y="196" as="sourcePoint"/>
                        <mxPoint x="456" y="169" as="targetPoint"/>
                        <Array as="points">
                            <mxPoint x="500" y="196"/>
                            <mxPoint x="500" y="169"/>
                        </Array>
                    </mxGeometry>
                </mxCell>
                <mxCell id="824" value="失敗" style="text;strokeColor=none;fillColor=none;align=left;verticalAlign=top;spacingLeft=4;spacingRight=4;overflow=hidden;rotatable=0;points=[[0,0.5],[1,0.5]];portConstraint=eastwest;whiteSpace=wrap;html=1;shadow=0;fontFamily=Helvetica;fontSize=10;fontColor=default;startSize=30;fontStyle=1;rounded=1;strokeWidth=3;" parent="1" vertex="1">
                    <mxGeometry x="478" y="146" width="37" height="21" as="geometry"/>
                </mxCell>
                <mxCell id="825" value="" style="endArrow=classic;html=1;fontFamily=Helvetica;fontSize=12;fontColor=default;startSize=30;edgeStyle=orthogonalEdgeStyle;elbow=vertical;curved=1;rounded=1;strokeWidth=3;" parent="1" edge="1">
                    <mxGeometry width="50" height="50" relative="1" as="geometry">
                        <mxPoint x="680.5" y="396.5" as="sourcePoint"/>
                        <mxPoint x="678.5" y="369.5" as="targetPoint"/>
                        <Array as="points">
                            <mxPoint x="722.5" y="396.5"/>
                            <mxPoint x="722.5" y="369.5"/>
                        </Array>
                    </mxGeometry>
                </mxCell>
                <mxCell id="826" value="失敗" style="text;strokeColor=none;fillColor=none;align=left;verticalAlign=top;spacingLeft=4;spacingRight=4;overflow=hidden;rotatable=0;points=[[0,0.5],[1,0.5]];portConstraint=eastwest;whiteSpace=wrap;html=1;shadow=0;fontFamily=Helvetica;fontSize=10;fontColor=default;startSize=30;fontStyle=1;rounded=1;strokeWidth=3;" parent="1" vertex="1">
                    <mxGeometry x="700.5" y="346.5" width="37" height="21" as="geometry"/>
                </mxCell>
                <mxCell id="828" value="成功" style="text;strokeColor=none;fillColor=none;align=left;verticalAlign=top;spacingLeft=4;spacingRight=4;overflow=hidden;rotatable=0;points=[[0,0.5],[1,0.5]];portConstraint=eastwest;whiteSpace=wrap;html=1;shadow=0;fontFamily=Helvetica;fontSize=10;fontColor=default;startSize=30;fontStyle=1;rounded=1;strokeWidth=3;" parent="1" vertex="1">
                    <mxGeometry x="467" y="262" width="37" height="21" as="geometry"/>
                </mxCell>
                <mxCell id="829" value="" style="edgeStyle=orthogonalEdgeStyle;endArrow=classic;html=1;rounded=1;endSize=8;startSize=8;labelBackgroundColor=default;strokeColor=default;fontFamily=Helvetica;fontSize=11;fontColor=default;shape=connector;strokeWidth=3;exitX=-0.044;exitY=0.667;exitDx=0;exitDy=0;exitPerimeter=0;" parent="1" source="346" edge="1">
                    <mxGeometry width="50" height="50" relative="1" as="geometry">
                        <mxPoint x="508" y="431" as="sourcePoint"/>
                        <mxPoint x="1008" y="185" as="targetPoint"/>
                        <Array as="points">
                            <mxPoint x="449" y="431"/>
                            <mxPoint x="449" y="532"/>
                            <mxPoint x="766" y="532"/>
                            <mxPoint x="766" y="185"/>
                        </Array>
                    </mxGeometry>
                </mxCell>
                <mxCell id="830" value="成功" style="text;strokeColor=none;fillColor=none;align=left;verticalAlign=top;spacingLeft=4;spacingRight=4;overflow=hidden;rotatable=0;points=[[0,0.5],[1,0.5]];portConstraint=eastwest;whiteSpace=wrap;html=1;shadow=0;fontFamily=Helvetica;fontSize=10;fontColor=default;startSize=30;fontStyle=1;rounded=1;strokeWidth=3;" parent="1" vertex="1">
                    <mxGeometry x="464" y="368.5" width="37" height="21" as="geometry"/>
                </mxCell>
                <mxCell id="831" value="成功" style="text;strokeColor=none;fillColor=none;align=left;verticalAlign=top;spacingLeft=4;spacingRight=4;overflow=hidden;rotatable=0;points=[[0,0.5],[1,0.5]];portConstraint=eastwest;whiteSpace=wrap;html=1;shadow=0;fontFamily=Helvetica;fontSize=10;fontColor=default;startSize=30;fontStyle=1;rounded=1;strokeWidth=3;" parent="1" vertex="1">
                    <mxGeometry x="467" y="436.77" width="34" height="21" as="geometry"/>
                </mxCell>
                <mxCell id="833" value="" style="edgeStyle=segmentEdgeStyle;endArrow=classic;html=1;curved=0;rounded=1;endSize=8;startSize=8;labelBackgroundColor=default;strokeColor=default;fontFamily=Helvetica;fontSize=11;fontColor=default;shape=connector;fontStyle=0;strokeWidth=3;" parent="1" edge="1">
                    <mxGeometry width="50" height="50" relative="1" as="geometry">
                        <mxPoint x="688" y="196.45999999999992" as="sourcePoint"/>
                        <mxPoint x="598" y="344" as="targetPoint"/>
                        <Array as="points">
                            <mxPoint x="726" y="197"/>
                            <mxPoint x="726" y="287"/>
                            <mxPoint x="598" y="287"/>
                        </Array>
                    </mxGeometry>
                </mxCell>
                <mxCell id="834" value="失敗" style="text;strokeColor=none;fillColor=none;align=left;verticalAlign=top;spacingLeft=4;spacingRight=4;overflow=hidden;rotatable=0;points=[[0,0.5],[1,0.5]];portConstraint=eastwest;whiteSpace=wrap;html=1;shadow=0;fontFamily=Helvetica;fontSize=10;fontColor=default;startSize=30;fontStyle=1;rounded=1;strokeWidth=3;" parent="1" vertex="1">
                    <mxGeometry x="689" y="140.99999999999997" width="37" height="21" as="geometry"/>
                </mxCell>
                <mxCell id="835" value="" style="endArrow=classic;html=1;fontFamily=Helvetica;fontSize=12;fontColor=default;startSize=30;edgeStyle=orthogonalEdgeStyle;elbow=vertical;curved=1;fontStyle=0;rounded=1;strokeWidth=3;" parent="1" edge="1">
                    <mxGeometry width="50" height="50" relative="1" as="geometry">
                        <mxPoint x="690" y="253" as="sourcePoint"/>
                        <mxPoint x="690" y="173" as="targetPoint"/>
                        <Array as="points">
                            <mxPoint x="753" y="253"/>
                            <mxPoint x="753" y="173"/>
                        </Array>
                    </mxGeometry>
                </mxCell>
                <mxCell id="837" value="" style="edgeStyle=segmentEdgeStyle;endArrow=classic;html=1;curved=0;rounded=1;endSize=8;startSize=8;labelBackgroundColor=default;strokeColor=default;fontFamily=Helvetica;fontSize=11;fontColor=default;shape=connector;fontStyle=0;strokeWidth=3;exitX=1;exitY=0.5;exitDx=0;exitDy=0;" parent="1" source="346" edge="1">
                    <mxGeometry width="50" height="50" relative="1" as="geometry">
                        <mxPoint x="753" y="422" as="sourcePoint"/>
                        <mxPoint x="536" y="346" as="targetPoint"/>
                        <Array as="points">
                            <mxPoint x="746" y="425"/>
                            <mxPoint x="746" y="301"/>
                            <mxPoint x="536" y="301"/>
                        </Array>
                    </mxGeometry>
                </mxCell>
                <mxCell id="838" value="失敗" style="text;strokeColor=none;fillColor=none;align=left;verticalAlign=top;spacingLeft=4;spacingRight=4;overflow=hidden;rotatable=0;points=[[0,0.5],[1,0.5]];portConstraint=eastwest;whiteSpace=wrap;html=1;shadow=0;fontFamily=Helvetica;fontSize=10;fontColor=default;startSize=30;fontStyle=1;rounded=1;strokeWidth=3;" parent="1" vertex="1">
                    <mxGeometry x="496" y="291" width="37" height="21" as="geometry"/>
                </mxCell>
                <mxCell id="839" value="" style="edgeStyle=segmentEdgeStyle;endArrow=classic;html=1;curved=0;rounded=1;endSize=8;startSize=8;labelBackgroundColor=default;strokeColor=default;fontFamily=Helvetica;fontSize=11;fontColor=default;shape=connector;strokeWidth=3;exitX=-0.041;exitY=0.433;exitDx=0;exitDy=0;exitPerimeter=0;entryX=0.757;entryY=1.019;entryDx=0;entryDy=0;entryPerimeter=0;" parent="1" source="353" target="492" edge="1">
                    <mxGeometry width="50" height="50" relative="1" as="geometry">
                        <mxPoint x="450" y="255" as="sourcePoint"/>
                        <mxPoint x="1144" y="223" as="targetPoint"/>
                        <Array as="points">
                            <mxPoint x="508" y="255"/>
                            <mxPoint x="403" y="255"/>
                            <mxPoint x="403" y="606"/>
                            <mxPoint x="1428" y="606"/>
                            <mxPoint x="1428" y="283"/>
                            <mxPoint x="1144" y="283"/>
                        </Array>
                    </mxGeometry>
                </mxCell>
                <mxCell id="840" value="「商品一覧」画面" style="swimlane;fontStyle=1;childLayout=stackLayout;horizontal=1;startSize=30;horizontalStack=0;resizeParent=1;resizeParentMax=0;resizeLast=0;collapsible=1;marginBottom=0;whiteSpace=wrap;html=1;shadow=0;strokeColor=#d6b656;fontFamily=Helvetica;fontSize=12;fillColor=#fff2cc;align=center;rounded=1;strokeWidth=3;" vertex="1" parent="1">
                    <mxGeometry x="1713" y="304.13" width="183" height="120" as="geometry"/>
                </mxCell>
                <mxCell id="841" value="「詳細」をクリック" style="text;align=center;verticalAlign=middle;spacingLeft=4;spacingRight=4;overflow=hidden;points=[[0,0.5],[1,0.5]];portConstraint=eastwest;rotatable=0;whiteSpace=wrap;html=1;shadow=0;fontFamily=Helvetica;fontSize=12;strokeColor=#D6B656;rounded=1;strokeWidth=3;" vertex="1" parent="840">
                    <mxGeometry y="30" width="183" height="30" as="geometry"/>
                </mxCell>
                <mxCell id="842" value="「レビューを見る」をクリック" style="text;align=center;verticalAlign=middle;spacingLeft=4;spacingRight=4;overflow=hidden;points=[[0,0.5],[1,0.5]];portConstraint=eastwest;rotatable=0;whiteSpace=wrap;html=1;shadow=0;fontFamily=Helvetica;fontSize=12;strokeColor=#D6B656;rounded=1;strokeWidth=3;" vertex="1" parent="840">
                    <mxGeometry y="60" width="183" height="30" as="geometry"/>
                </mxCell>
                <mxCell id="843" value="「レビューを書く」をクリック" style="text;align=center;verticalAlign=middle;spacingLeft=4;spacingRight=4;overflow=hidden;points=[[0,0.5],[1,0.5]];portConstraint=eastwest;rotatable=0;whiteSpace=wrap;html=1;shadow=0;fontFamily=Helvetica;fontSize=12;strokeColor=#D6B656;rounded=1;strokeWidth=3;" vertex="1" parent="840">
                    <mxGeometry y="90" width="183" height="30" as="geometry"/>
                </mxCell>
                <mxCell id="844" value="「レビュー一覧」画面" style="swimlane;fontStyle=1;childLayout=stackLayout;horizontal=1;startSize=30;horizontalStack=0;resizeParent=1;resizeParentMax=0;resizeLast=0;collapsible=1;marginBottom=0;whiteSpace=wrap;html=1;shadow=0;strokeColor=#d6b656;fontFamily=Helvetica;fontSize=12;fillColor=#fff2cc;align=center;rounded=1;strokeWidth=3;" vertex="1" parent="1">
                    <mxGeometry x="1711" y="470.86" width="183" height="60" as="geometry"/>
                </mxCell>
                <mxCell id="845" value="「戻る」をクリック" style="text;align=center;verticalAlign=middle;spacingLeft=4;spacingRight=4;overflow=hidden;points=[[0,0.5],[1,0.5]];portConstraint=eastwest;rotatable=0;whiteSpace=wrap;html=1;shadow=0;fontFamily=Helvetica;fontSize=12;strokeColor=#D6B656;rounded=1;strokeWidth=3;" vertex="1" parent="844">
                    <mxGeometry y="30" width="183" height="30" as="geometry"/>
                </mxCell>
                <mxCell id="846" value="" style="edgeStyle=elbowEdgeStyle;elbow=horizontal;endArrow=classic;html=1;curved=0;rounded=1;endSize=8;startSize=8;entryX=0;entryY=0.233;entryDx=0;entryDy=0;entryPerimeter=0;strokeWidth=3;" edge="1" parent="1" target="844">
                    <mxGeometry width="50" height="50" relative="1" as="geometry">
                        <mxPoint x="1708" y="378.86" as="sourcePoint"/>
                        <mxPoint x="2064" y="360.86" as="targetPoint"/>
                        <Array as="points">
                            <mxPoint x="1639" y="437.86"/>
                            <mxPoint x="2026" y="430.86"/>
                        </Array>
                    </mxGeometry>
                </mxCell>
                <mxCell id="847" value="" style="edgeStyle=elbowEdgeStyle;elbow=horizontal;endArrow=classic;html=1;curved=0;rounded=1;endSize=8;startSize=8;exitX=-0.016;exitY=0.533;exitDx=0;exitDy=0;exitPerimeter=0;strokeWidth=3;" edge="1" parent="1" source="845">
                    <mxGeometry width="50" height="50" relative="1" as="geometry">
                        <mxPoint x="2070" y="380.86" as="sourcePoint"/>
                        <mxPoint x="1709" y="317.86" as="targetPoint"/>
                        <Array as="points">
                            <mxPoint x="1619" y="424.86"/>
                            <mxPoint x="1695" y="322.86"/>
                            <mxPoint x="1626" y="417.86"/>
                        </Array>
                    </mxGeometry>
                </mxCell>
                <mxCell id="848" value="" style="edgeStyle=segmentEdgeStyle;endArrow=classic;html=1;curved=0;rounded=1;endSize=8;startSize=8;strokeWidth=3;entryX=0.25;entryY=0;entryDx=0;entryDy=0;" edge="1" parent="1" target="267">
                    <mxGeometry width="50" height="50" relative="1" as="geometry">
                        <mxPoint x="1708" y="349" as="sourcePoint"/>
                        <mxPoint x="1238" y="128" as="targetPoint"/>
                        <Array as="points">
                            <mxPoint x="1708" y="349"/>
                            <mxPoint x="1485" y="349"/>
                            <mxPoint x="1485" y="120"/>
                            <mxPoint x="1274" y="120"/>
                        </Array>
                    </mxGeometry>
                </mxCell>
                <mxCell id="849" value="" style="edgeStyle=segmentEdgeStyle;endArrow=classic;html=1;curved=0;rounded=1;endSize=8;startSize=8;strokeWidth=3;entryX=0.785;entryY=1.077;entryDx=0;entryDy=0;entryPerimeter=0;" edge="1" parent="1" target="268">
                    <mxGeometry width="50" height="50" relative="1" as="geometry">
                        <mxPoint x="1711" y="409" as="sourcePoint"/>
                        <mxPoint x="1396" y="221" as="targetPoint"/>
                        <Array as="points">
                            <mxPoint x="1466" y="409"/>
                            <mxPoint x="1466" y="261"/>
                            <mxPoint x="1369" y="261"/>
                        </Array>
                    </mxGeometry>
                </mxCell>
            </root>
        </mxGraphModel>
    </diagram>
</mxfile>